<svg width="2039" height="254" viewBox="0 0 2039 254" fill="none" xmlns="http://www.w3.org/2000/svg">
<g clip-path="url(#clip0_187_176)">
<circle cx="1127" cy="124" r="121" fill="#353535"/>
<path d="M2038.6 26.3L1997.6 222.3H0L77.3 26.3H2038.6Z" fill="#353535"/>
<path d="M1020 135.3C1023.2 141.5 1023.8 149 1021.7 157.8C1018.6 170.7 1011.1 180.6 999.1 187.6C987.1 194.6 971.3 198.1 951.7 198.1H872.5L909.4 51.4H983.2C1001.6 51.4 1014.8 54.9 1022.8 61.8C1030.8 68.7 1033.5 78 1030.7 89.8C1029.1 96.8 1025.9 103 1021.2 108.6C1016.5 114.1 1010.7 118.5 1003.7 121.7C1011.3 124.5 1016.7 129.1 1020 135.3ZM942.5 81.3L935.6 109.6H963.8C977.6 109.6 985.7 104.9 988 95.3C990.2 85.9 984.5 81.3 970.7 81.3H942.5ZM981.1 153.2C983.5 143.3 977.5 138.3 963 138.3H928.4L921 168.1H955.7C970.2 168.1 978.7 163.1 981.1 153.2Z" fill="white"/>
<path d="M1385.1 51.3L1356.1 198H1322L1273.7 119.8L1257.2 198H1216.5L1247.8 51.3H1281.4L1329.5 129.5L1345.1 51.3H1385.1Z" fill="white"/>
<path d="M1509.2 166L1503.3 198.1H1385.5L1414 51.3H1527.2L1521.5 83.4001H1448.5L1443.9 108.1H1508.4L1502.7 139.1H1438L1432.9 165.9H1509.2V166Z" fill="white"/>
<path d="M1669.2 135.3C1672.9 141.5 1674 149 1672.6 157.8C1670.5 170.7 1663.7 180.6 1652.2 187.6C1640.7 194.6 1625.1 198.1 1605.6 198.1H1526.4L1552.6 51.4H1626.4C1644.8 51.4 1658.3 54.9 1666.8 61.8C1675.3 68.7 1678.6 78 1676.7 89.8C1675.6 96.8 1672.9 103 1668.6 108.6C1664.3 114.1 1658.8 118.5 1652 121.7C1659.7 124.5 1665.5 129.1 1669.2 135.3ZM1587.8 81.3L1582.9 109.6H1611.1C1624.9 109.6 1632.6 104.9 1634.2 95.3C1635.8 85.9 1629.6 81.3 1615.9 81.3H1587.8ZM1631.6 153.2C1633.3 143.3 1626.9 138.3 1612.5 138.3H1577.9L1572.7 168.1H1607.4C1621.9 168.1 1630 163.1 1631.6 153.2Z" fill="white"/>
<path d="M1720.8 191.2C1709.5 184.6 1701.3 175.5 1696.1 163.9C1691 152.3 1689.6 139.2 1691.9 124.7C1694.2 110.2 1699.8 97.1001 1708.6 85.5C1717.4 73.9 1728.4 64.8001 1741.6 58.2001C1754.8 51.6001 1769 48.3 1784.2 48.3C1799.4 48.3 1812.7 51.6001 1823.9 58.2001C1835.1 64.8001 1843.4 73.9 1848.7 85.5C1854 97.1001 1855.7 110.2 1853.6 124.7C1851.5 139.2 1846.1 152.3 1837.4 163.9C1828.7 175.5 1817.6 184.6 1804.3 191.2C1790.9 197.8 1776.5 201.1 1761 201.1C1745.5 201 1732.1 197.7 1720.8 191.2ZM1787.2 161.4C1793.7 157.9 1799.2 153 1803.6 146.6C1808 140.2 1810.8 132.9 1812.1 124.7C1813.3 116.5 1812.7 109.2 1810.1 102.8C1807.6 96.4001 1803.6 91.5 1798.2 88C1792.8 84.5 1786.4 82.8001 1779.1 82.8001C1771.8 82.8001 1764.9 84.5 1758.4 88C1751.9 91.5 1746.5 96.4001 1742 102.8C1737.6 109.2 1734.7 116.5 1733.4 124.7C1732.1 132.9 1732.7 140.2 1735.2 146.6C1737.7 153 1741.6 157.9 1747.1 161.4C1752.5 164.9 1758.9 166.6 1766.3 166.6C1773.7 166.6 1780.7 164.9 1787.2 161.4Z" fill="white"/>
<path d="M1885.4 51.3H1926.2L1910.8 165.1H1980.5L1976.2 198H1864.7L1885.4 51.3Z" fill="white"/>
<circle cx="1127" cy="124" r="102" fill="url(#paint0_linear_187_176)"/>
<path d="M1210.43 86.4717C1207.93 81.1793 1204.94 75.9831 1201.48 71.268C1200.52 70.017 1199.75 68.8623 1198.88 67.9C1198.21 67.1302 1197.63 66.3604 1197.15 65.7831C1195.61 63.9548 1193.97 62.1264 1192.24 60.4906C1175.02 43.1698 1152.02 33.6434 1127.58 33.6434C1098.42 33.6434 1070.71 47.7887 1053.58 71.3642C1052.04 73.4812 1050.5 75.7906 1049.06 78.1963C1048.48 79.1585 1047.9 80.1208 1047.32 81.1793C1044.73 85.8944 1042.51 90.9944 1040.78 96.1906L1040.68 96.4793C1040.59 96.6717 1040.59 96.8642 1040.49 96.9604L1040.4 97.1529C1040.11 97.9227 1039.92 98.6925 1039.72 99.4623V99.6547C1037.32 107.93 1036.16 116.398 1036.16 125.059C1036.16 175.481 1077.15 216.474 1127.58 216.474C1160.68 216.474 1191.28 198.479 1207.45 169.611L1207.73 169.13C1209.75 165.474 1211.58 161.625 1213.03 157.776C1213.7 155.947 1214.37 154.215 1214.85 152.387C1214.85 152.291 1214.95 152.194 1214.95 152.098V152.002C1215.14 151.425 1215.34 150.751 1215.53 150.174C1215.72 149.5 1215.82 149.019 1216.01 148.538C1216.11 148.345 1216.11 148.057 1216.2 147.768C1216.2 147.672 1216.3 147.479 1216.3 147.383C1216.78 145.555 1217.16 143.726 1217.55 141.609C1217.84 139.877 1218.13 138.145 1218.32 136.413C1218.51 134.874 1218.7 133.142 1218.8 131.506C1218.99 129.389 1218.99 127.176 1218.99 125.059C1218.99 111.587 1216.11 98.5963 1210.43 86.4717ZM1211.2 140.84C1211.2 140.647 1211.1 140.551 1211.01 140.359C1210.91 140.07 1210.91 139.589 1211.01 139.204C1211.1 139.011 1211.1 138.819 1211.1 138.53C1211.49 138.434 1212.06 138.915 1212.45 139.108C1212.74 139.204 1212.93 139.3 1213.12 139.589C1213.31 139.877 1213.32 140.262 1213.41 140.647C1213.41 140.743 1213.41 140.743 1213.41 140.84C1213.22 141.706 1213.03 142.572 1212.93 143.438C1212.45 142.957 1211.97 142.476 1211.58 141.898C1211.49 141.802 1211.49 141.706 1211.39 141.609C1211.39 141.513 1211.39 141.417 1211.39 141.225C1211.2 141.128 1211.2 141.032 1211.2 140.84ZM1194.45 69.151C1194.65 69.4397 1194.94 69.7283 1195.22 70.017C1195.03 70.1132 1194.74 70.1132 1194.55 69.9208C1194.36 69.8246 1194.36 69.4397 1194.45 69.151ZM1214.08 134.2C1213.51 133.526 1213.89 132.275 1214.47 131.602C1214.37 132.564 1214.28 133.43 1214.18 134.296C1214.18 134.296 1214.18 134.296 1214.08 134.2ZM1210.81 150.943L1210.72 151.136C1210.24 152.868 1209.56 154.6 1208.89 156.236C1207.45 160.085 1205.62 163.838 1203.6 167.494L1203.4 167.879C1187.91 195.208 1158.85 212.24 1127.38 212.24C1079.27 212.24 1040.11 173.076 1040.11 124.962C1040.11 116.687 1041.26 108.411 1043.57 100.521L1043.67 100.232C1043.76 99.751 1043.96 99.3661 1044.05 98.8849L1044.25 98.3076C1044.34 98.0189 1044.44 97.7302 1044.53 97.4415L1044.63 97.1529C1044.63 97.0566 1044.63 97.0566 1044.73 96.9604C1045.01 97.1529 1045.3 97.3453 1045.59 97.4415C1045.98 97.634 1046.46 97.5378 1046.84 97.9227C1046.94 98.0189 1047.04 98.2114 1047.13 98.4038C1047.32 98.6925 1047.52 99.0774 1047.71 99.4623C1047.81 99.751 1047.9 100.04 1048 100.425C1048.09 101.002 1048.29 101.483 1048.38 101.964C1048.38 102.253 1048.38 103.023 1047.9 103.119C1047.42 103.215 1047.32 102.349 1047.23 102.06C1047.13 101.676 1046.94 101.387 1046.65 101.002C1046.27 100.521 1045.78 100.232 1045.21 99.9434C1044.73 99.751 1044.34 99.4623 1043.86 99.5585C1043.86 99.9434 1044.25 100.425 1044.44 100.809C1044.63 101.579 1044.73 102.349 1045.02 103.023C1045.3 103.696 1045.4 104.081 1045.3 104.851C1045.21 105.717 1045.21 106.391 1044.92 107.16C1044.63 107.93 1044.63 108.7 1044.34 109.47C1044.05 110.336 1043.67 111.202 1043.57 112.068C1043.48 112.742 1043.57 113.319 1043.67 113.992C1043.76 114.281 1043.76 114.666 1043.86 115.051C1044.25 115.821 1045.02 116.302 1045.5 117.072C1045.98 117.745 1046.07 118.323 1046.27 119.092C1046.36 119.381 1046.46 119.862 1046.65 120.151C1046.84 120.343 1047.04 120.44 1047.23 120.632C1047.42 120.825 1047.61 121.113 1047.71 121.402C1047.9 121.787 1048.19 121.594 1048.48 122.557C1048.58 124 1049.25 125.251 1049.63 126.598C1049.92 127.56 1050.31 128.138 1050.98 128.811C1051.56 129.292 1052.33 130.447 1053.1 130.543C1052.91 129.87 1052.04 129.485 1051.75 128.908C1051.65 128.619 1051.56 128.426 1051.37 128.138C1051.17 127.849 1050.88 127.56 1050.6 127.368C1050.02 126.791 1050.11 125.828 1049.92 125.059C1049.73 124.192 1049.73 123.326 1049.83 122.46C1050.12 122.845 1050.4 123.519 1050.6 123.808C1051.46 124.481 1052.23 125.732 1053 126.598C1053.39 127.657 1053.96 128.234 1054.64 128.811C1055.12 129.292 1054.73 129.87 1054.73 130.447C1054.73 130.832 1054.73 131.409 1054.73 131.794C1054.73 132.372 1055.02 132.564 1055.5 132.853C1056.08 133.238 1056.56 133.623 1057.24 133.911C1057.81 134.585 1058.2 134.777 1058.78 135.066C1059.45 135.451 1059.74 136.509 1060.51 135.836C1060.89 135.547 1061.57 134.489 1062.14 134.681C1062.72 134.97 1062.62 135.74 1063.3 135.932C1063.97 136.221 1064.74 136.125 1065.51 136.221C1066.47 136.317 1066.57 136.991 1066.95 137.953C1067.44 137.857 1067.72 138.049 1068.11 138.049C1068.59 138.049 1069.17 137.953 1069.55 138.338C1070.03 138.819 1069.84 139.781 1069.94 140.455C1070.03 140.743 1070.23 141.128 1070.42 141.321C1070.71 141.609 1070.9 141.513 1071.38 141.513C1071.96 141.513 1072.54 141.706 1073.11 141.513C1073.5 141.417 1073.88 141.225 1074.36 141.128C1074.75 141.128 1074.94 141.225 1075.23 141.417C1075.33 141.417 1075.33 141.513 1075.42 141.513L1075.13 141.609C1075.33 141.706 1075.42 141.706 1075.52 141.802C1075.42 141.898 1075.52 141.994 1075.52 142.091C1075.52 142.187 1075.61 142.187 1075.61 142.283C1075.61 142.572 1075.61 142.764 1075.71 143.053C1075.71 143.149 1075.71 143.149 1075.81 143.245C1075.9 143.342 1076.1 143.438 1076.1 143.534C1076.19 143.823 1076 144.015 1075.71 144.111C1075.52 144.208 1075.42 144.208 1075.23 144.304C1075.13 144.4 1074.94 144.496 1074.85 144.592C1074.75 144.689 1074.75 144.785 1074.65 144.785C1074.56 144.881 1074.65 144.977 1074.56 144.977C1074.56 145.074 1074.46 145.074 1074.36 145.17C1074.17 145.362 1073.88 145.651 1073.88 145.94C1073.88 146.228 1073.88 146.517 1073.69 146.709C1073.69 146.806 1073.59 146.806 1073.5 146.806C1073.4 146.902 1073.4 146.998 1073.31 146.998C1073.21 147.191 1073.02 147.287 1072.92 147.479C1072.92 147.576 1072.82 147.672 1072.82 147.768C1072.82 147.96 1072.92 147.96 1072.73 148.153C1072.54 148.345 1072.44 148.538 1072.34 148.73C1072.25 148.826 1072.25 148.923 1072.34 149.115C1072.44 149.308 1072.34 149.404 1072.25 149.5C1072.15 149.789 1071.96 149.981 1072.05 150.27C1072.05 150.366 1072.15 150.462 1072.25 150.559C1072.44 150.655 1072.54 150.847 1072.63 151.04C1072.63 151.136 1072.63 151.232 1072.63 151.328V151.425C1072.63 151.521 1072.63 151.617 1072.63 151.713C1072.63 151.809 1072.54 151.906 1072.54 152.002C1072.44 152.194 1072.44 152.291 1072.34 152.483C1072.25 152.676 1072.25 152.964 1072.34 153.157C1072.34 153.253 1072.44 153.253 1072.44 153.349C1072.54 154.215 1072.92 155.274 1073.4 155.947C1073.69 156.332 1073.98 156.621 1074.17 157.006C1074.46 157.391 1074.65 157.872 1074.94 158.16C1075.23 158.545 1075.52 159.026 1075.9 159.315C1076.19 159.508 1076.67 159.7 1077.06 159.796C1077.44 159.892 1077.92 159.989 1078.12 160.374C1078.5 160.759 1078.41 161.432 1078.89 161.817C1079.37 162.202 1079.85 162.491 1080.23 162.875C1080.62 164.992 1080.52 167.109 1081.29 169.13C1081.58 169.9 1081.68 170.67 1081.77 171.44C1081.68 172.113 1081.68 172.787 1081.77 173.46C1081.68 174.519 1081.58 175.577 1081.29 176.54C1081.1 177.406 1081.1 178.272 1081 179.138C1080.91 179.619 1081 180.004 1080.91 180.485C1080.71 180.677 1080.62 180.87 1080.52 181.062C1080.33 181.447 1080.52 181.736 1080.62 182.121C1080.72 182.698 1080.81 183.372 1080.91 183.949C1081.1 185.2 1081.39 186.451 1081.39 187.702C1081.39 188.953 1081.29 190.204 1081.29 191.359C1081.58 192.321 1082.16 193.187 1082.74 193.957C1083.6 195.208 1084.56 195.689 1086.01 196.555C1086.39 196.459 1087.07 197.036 1087.84 197.132C1088.61 197.517 1089.47 197.902 1090.24 197.709C1090.34 197.132 1089.76 196.94 1089.38 196.651C1088.89 196.266 1088.22 196.17 1088.03 195.496C1087.84 195.015 1087.55 194.63 1087.07 194.342C1086.78 194.149 1086.49 194.053 1086.2 193.957C1086.01 193.86 1085.91 193.764 1085.81 193.668L1085.43 193.475C1085.43 193.091 1085.43 192.802 1085.43 192.417C1085.53 192.032 1085.53 191.455 1085.72 191.07C1085.81 190.781 1086.01 190.589 1086.2 190.396C1086.39 190.011 1086.3 189.626 1086.3 189.242C1086.3 188.664 1086.49 188.087 1086.49 187.509C1086.49 186.547 1086.39 185.681 1086.78 184.815C1087.35 183.564 1088.22 182.313 1089.18 181.351C1089.47 181.062 1089.66 180.774 1089.95 180.581C1090.34 180.292 1090.72 180.292 1091.01 180.004C1091.2 179.715 1091.3 179.33 1091.4 178.945C1091.49 178.464 1091.68 178.079 1091.78 177.598C1091.88 176.925 1091.49 176.251 1091.11 175.674C1091.3 175.77 1091.49 175.77 1091.68 175.866C1092.07 175.962 1092.45 176.059 1092.84 176.155C1093.22 176.251 1093.9 176.059 1094.28 175.866C1094.57 175.674 1094.67 175.289 1094.86 175C1095.05 174.808 1095.25 174.711 1095.34 174.519C1095.53 174.23 1095.82 173.942 1096.11 173.749C1096.21 173.653 1096.4 173.557 1096.5 173.46C1097.17 172.787 1097.36 171.536 1097.65 170.67C1097.94 169.708 1098.52 168.745 1099 167.879C1099.38 167.398 1099.96 166.821 1100.54 166.628C1101.11 166.34 1101.88 165.955 1102.46 165.57C1103.04 165.089 1103.14 164.415 1103.62 163.742C1103.91 163.357 1104.19 163.068 1104.29 162.587C1104.39 161.913 1104.29 161.24 1104.29 160.566C1104.29 160.085 1104.19 159.7 1104 159.219C1103.91 158.738 1103.91 158.257 1103.91 157.776C1103.91 157.198 1104.19 156.813 1104.68 156.525C1105.16 156.236 1105.54 155.947 1105.93 155.466C1106.5 154.792 1107.56 153.542 1107.18 152.579C1106.98 152.098 1106.7 152.098 1106.31 151.906C1106.12 151.809 1105.93 151.617 1105.73 151.521C1105.45 151.425 1105.25 151.425 1104.96 151.425H1104.58C1104.58 151.328 1104.58 151.328 1104.58 151.232C1104.58 150.559 1104 150.462 1103.42 150.366C1103.04 150.27 1102.65 150.27 1102.27 150.174C1101.88 150.077 1101.6 149.885 1101.31 149.789C1100.92 149.692 1100.63 149.5 1100.25 149.308C1099.86 149.211 1099.48 149.115 1099.19 148.826C1098.81 148.345 1098.9 147.672 1098.32 147.383C1097.75 146.998 1096.88 146.998 1096.3 146.709C1096.3 146.517 1096.3 146.325 1096.21 146.132C1096.01 145.843 1095.73 145.651 1095.34 145.555C1095.15 145.17 1095.05 144.689 1094.86 144.304C1094.48 143.342 1093.22 143.053 1091.97 142.957C1091.4 142.379 1090.72 141.898 1089.95 141.417H1088.03C1087.55 141.417 1086.78 141.417 1086.49 141.128C1086.3 140.936 1086.2 140.647 1086.01 140.551C1085.62 140.359 1085.24 140.262 1084.95 139.974C1084.47 139.589 1084.18 139.011 1083.79 138.53C1083.6 138.242 1083.51 138.145 1083.12 138.145C1082.64 138.145 1082.35 138.53 1082.06 138.819C1081.87 139.011 1081.58 139.589 1081.29 139.204C1081 138.723 1081.48 137.953 1080.81 137.857C1080.33 137.76 1079.85 137.857 1079.37 137.76C1078.98 137.664 1078.69 137.664 1078.31 137.857C1077.44 138.242 1076.77 139.204 1076.19 139.877C1075.9 140.166 1075.33 141.225 1074.85 140.936C1074.65 140.84 1074.56 140.551 1074.36 140.455C1074.17 140.359 1073.98 140.166 1073.79 140.166C1073.31 140.07 1072.73 140.551 1072.25 140.647C1071.77 140.743 1071.28 140.647 1070.9 140.359C1070.71 140.262 1070.51 140.166 1070.42 139.974C1070.32 139.781 1070.61 139.108 1070.71 138.819C1071 137.857 1071.48 136.894 1071.09 135.836C1070.8 135.162 1069.84 135.162 1069.26 135.547C1068.69 135.932 1068.11 136.798 1067.34 136.509C1067.44 135.932 1067.63 135.547 1067.24 134.97C1066.95 134.489 1066.76 134.296 1066.95 133.815C1067.24 133.142 1067.82 132.564 1068.21 131.987C1068.59 131.506 1068.3 131.313 1067.72 131.025C1067.24 130.832 1066.86 130.447 1066.28 130.64C1065.7 130.832 1065.7 131.409 1065.41 131.794C1065.03 132.276 1064.65 132.564 1064.16 132.949C1063.68 133.43 1062.91 134.2 1062.14 134.008C1061.66 133.911 1061.08 133.142 1060.8 132.757C1060.51 132.372 1060.22 132.276 1060.31 131.794C1060.41 131.217 1060.7 130.832 1060.7 130.255C1060.7 130.062 1060.7 129.87 1060.7 129.581C1060.7 129.1 1060.6 128.523 1060.51 128.042C1060.41 127.753 1060.31 127.56 1060.31 127.272C1060.41 126.502 1060.99 124.385 1062.14 124.962C1062.82 125.347 1063.49 125.925 1064.36 125.925C1064.84 125.925 1065.51 125.828 1065.41 125.347C1065.32 124.866 1064.84 124.289 1065.32 124C1065.8 123.615 1066.67 124.192 1067.24 124.192C1067.82 124.192 1067.92 123.711 1068.4 123.519C1068.78 123.326 1069.26 123.615 1069.65 123.808C1070.51 124.096 1070.71 124.577 1071.09 125.347C1071.38 125.925 1071.67 126.502 1071.86 127.176C1072.05 127.753 1072.34 127.945 1072.63 127.272C1072.92 126.502 1073.02 125.636 1073.02 124.77C1073.11 123.808 1072.92 122.942 1073.59 122.172C1073.98 121.691 1074.46 121.209 1075.04 120.921C1075.52 120.728 1076 120.728 1076.38 120.44C1076.96 120.151 1077.25 119.381 1077.15 118.804C1077.06 118.226 1076.77 117.649 1076.96 117.072C1077.15 116.591 1077.83 116.398 1078.21 116.013C1079.37 115.051 1080.52 113.992 1081.48 112.838C1081.97 112.164 1082.45 111.587 1083.41 111.491C1084.18 111.394 1084.85 111.587 1085.62 111.202C1086.01 111.009 1087.84 110.336 1087.45 109.662C1087.16 109.277 1086.39 109.277 1086.1 108.796C1085.81 108.219 1086.68 107.642 1087.07 107.353C1087.55 107.064 1087.93 106.872 1087.84 106.198C1087.74 105.428 1087.16 105.525 1086.49 105.525C1085.81 105.525 1085.24 105.813 1084.66 106.006C1084.37 106.102 1083.89 106.294 1083.6 106.294C1083.79 106.006 1084.08 105.717 1084.37 105.525C1084.76 105.236 1085.05 104.851 1085.43 104.659C1086.2 104.274 1087.07 104.177 1087.84 103.889C1088.51 103.696 1089.18 103.889 1089.95 103.889C1090.34 103.889 1090.63 103.889 1091.01 103.889C1091.4 103.889 1091.78 104.081 1092.26 104.177C1092.84 104.274 1093.8 104.177 1094.28 103.792C1094.67 103.408 1094.38 102.926 1094.19 102.542C1093.99 102.06 1093.71 101.772 1093.51 101.291C1093.22 100.617 1092.84 100.136 1092.36 99.5585C1091.97 99.0774 1091.49 98.5 1091.2 98.0189C1090.92 97.5378 1091.01 97.3453 1091.11 96.768C1091.2 96.2868 1091.97 94.1698 1091.3 94.0736C1091.01 93.9774 1090.82 94.2661 1090.63 94.3623C1090.34 94.651 1089.95 94.9397 1089.47 95.0359C1088.41 95.3246 1087.55 94.2661 1087.16 93.4C1086.87 92.7264 1086.97 91.9566 1086.78 91.2831C1086.58 90.6095 1086.1 89.9359 1085.43 89.6472C1085.05 89.4548 1084.28 89.3585 1083.99 89.8397C1083.79 90.1283 1083.99 90.3208 1083.89 90.5132C1083.79 90.9944 1083.41 91.3793 1083.02 91.7642C1082.54 92.2453 1082.06 92.8227 1081.87 93.4C1081.68 94.2661 1082.25 95.3246 1082.25 96.1906C1082.25 96.6717 1082.25 97.0566 1081.97 97.5378C1081.68 98.1151 1081.1 98.5963 1080.71 99.1736C1080.43 99.6547 1080.23 100.136 1080.14 100.617C1079.95 101.676 1079.56 102.926 1078.31 103.311C1077.92 103.408 1077.35 103.408 1077.06 103.023C1076.96 102.83 1076.96 102.445 1076.96 102.157C1076.96 101.387 1077.15 100.232 1076.77 99.4623C1076.58 99.0774 1076.38 99.1736 1076 98.9812C1075.71 98.8849 1075.52 98.5963 1075.33 98.3076C1074.94 97.8265 1074.75 97.1529 1074.27 96.6717C1073.59 95.9981 1072.92 96.1906 1072.05 96.1906C1071.57 96.0944 1071.48 95.9019 1071.09 95.7095C1071 95.7095 1070.9 95.6132 1070.8 95.6132C1070.71 95.517 1070.71 95.4208 1070.71 95.3246C1070.71 95.0359 1070.71 94.7472 1070.71 94.4585C1070.71 94.0736 1070.8 93.6887 1070.9 93.3038C1071 93.0151 1071.19 92.7265 1071.48 92.6302C1071.19 92.2453 1071.09 91.7642 1071 91.3793C1070.9 90.8019 1071.09 90.417 1071.48 89.9359C1072.25 88.9736 1073.69 89.2623 1074.65 88.5887C1074.94 88.3963 1075.23 88.1076 1075.42 87.8189C1075.52 87.6265 1075.61 87.3378 1075.71 87.1453C1075.9 86.9529 1076.1 86.6642 1076.19 86.3755C1076.29 86.1831 1076.19 86.0868 1076.38 85.9906C1076.67 85.7019 1077.06 85.6057 1077.44 85.6057C1077.83 85.6057 1078.6 85.4132 1078.79 85.0283C1078.89 84.7397 1078.89 84.451 1078.89 84.1623C1078.89 83.6812 1078.98 83.3925 1079.37 83.1038C1079.66 82.9114 1080.23 82.7189 1080.33 82.4302C1080.43 82.1415 1080.23 81.8529 1080.23 81.6604C1080.14 81.468 1080.14 80.8906 1080.33 80.7944C1080.52 80.6019 1081 80.6019 1081.2 80.6982C1081.58 80.8906 1081.77 81.2755 1082.16 81.468C1082.45 81.6604 1082.64 81.5642 1082.83 81.2755C1083.22 80.8906 1083.31 80.6019 1083.41 80.0246C1083.51 79.7359 1083.6 79.4472 1083.51 79.1585C1082.93 78.7736 1082.35 78.7736 1081.68 78.9661C1081.29 79.0623 1081 79.1585 1080.71 79.4472C1080.43 79.7359 1080.14 80.1208 1079.75 80.4095C1079.46 80.6981 1079.08 80.7944 1078.79 80.5057C1078.41 80.1208 1078.02 79.351 1077.83 78.8698C1077.73 78.5812 1077.92 78.1 1077.73 77.8114C1077.54 77.4265 1076.96 77.5227 1076.67 77.6189C1076.38 77.7151 1076.1 77.8114 1076 78.0038C1075.81 78.1963 1075.71 78.4849 1075.52 78.7736C1075.23 79.1585 1074.94 79.351 1074.46 79.4472C1073.98 79.4472 1073.69 79.2547 1073.31 78.9661C1072.92 78.6774 1072.54 78.6774 1072.15 78.9661C1071.57 79.2547 1071 79.5434 1070.32 79.351C1069.84 79.1585 1069.55 78.7736 1069.17 78.4849C1068.3 77.5227 1066.95 77.234 1065.99 78.1963C1065.61 78.5812 1065.51 78.9661 1065.41 79.5434C1064.65 79.351 1064.07 79.1585 1063.68 78.5812C1063.3 78.1 1063.39 77.7151 1063.3 77.1378C1063.2 76.6566 1063.11 76.0793 1062.62 75.7906C1062.24 75.5019 1061.85 75.6944 1061.47 75.5019C1061.08 75.3095 1061.18 74.8283 1061.08 74.5397C1060.89 73.8661 1060.6 73.3849 1059.83 73.3849C1059.35 73.3849 1058.87 73.5774 1058.29 73.6736C1057.72 73.7698 1057.52 73.5774 1057.24 73.0963C1057.04 72.7114 1056.95 72.3265 1056.66 72.0378C1073.11 50.5793 1098.81 37.8774 1125.85 37.8774C1146.92 37.8774 1166.84 45.2868 1182.62 58.8548C1182.52 58.951 1182.52 59.0472 1182.43 59.1434C1182.33 59.5283 1182.62 60.0095 1182.91 60.2981C1183 60.4906 1183.2 60.5868 1183.29 60.6831C1183.48 60.9717 1183.29 61.1642 1183.1 61.4529C1182.91 61.8378 1182.91 62.4151 1183.39 62.5114C1183.97 62.6076 1184.25 62.2227 1184.25 62.1265C1184.54 61.8378 1184.93 61.4529 1185.22 61.068C1185.79 61.6453 1186.37 62.1264 1186.95 62.7038C1186.76 62.8963 1186.66 63.0887 1186.56 63.3774C1186.37 63.7623 1186.37 64.1472 1186.18 64.4359C1185.99 64.7246 1185.7 64.917 1185.41 65.1095C1184.45 65.8793 1183.1 66.3604 1181.95 66.8415C1181.18 67.2265 1180.02 67.6114 1179.92 68.5736C1179.83 69.4397 1180.12 69.9208 1180.41 70.6906C1180.69 71.3642 1180.6 71.6529 1179.92 71.9415C1179.06 72.3265 1178.58 72.8076 1178.87 73.8661C1179.06 74.5397 1179.35 75.0208 1179.83 75.5019C1180.12 75.8868 1180.98 76.5604 1180.12 76.7529C1179.64 76.8491 1178.67 76.6566 1178.29 76.4642C1177.81 76.2717 1177.52 75.7906 1177.13 75.4057C1176.85 75.117 1176.46 74.9246 1176.17 74.6359C1175.11 75.117 1175.5 76.1755 1175.69 77.1378C1175.79 77.5227 1175.79 78.0038 1176.08 78.2925C1176.27 78.6774 1176.65 78.8699 1176.94 79.1585C1177.23 79.4472 1177.61 79.7359 1178 79.9283C1178.29 80.1208 1178.67 80.1208 1178.87 80.3132C1179.25 80.6019 1179.06 81.468 1179.06 81.8529C1179.06 82.5264 1178.67 83.2 1178.48 83.7774C1178.19 84.2585 1177.81 84.9321 1177.23 85.2208C1176.85 85.4132 1175.59 85.5095 1175.5 85.0283C1175.4 84.7397 1175.88 84.451 1176.08 84.3548C1176.46 83.9698 1176.85 83.5849 1177.04 83.2C1177.52 82.5265 1177.81 81.5642 1177.71 80.6982C1177.61 80.1208 1176.94 79.351 1176.56 78.9661C1176.17 78.6774 1175.69 78.5812 1175.4 78.2925C1174.92 77.9076 1174.82 77.234 1174.82 76.6566C1174.63 75.5982 1174.44 74.7321 1173.86 73.7699C1173.67 73.3849 1173.48 73 1173 73.0963C1172.51 73.1925 1171.94 73.4812 1171.75 73.8661C1171.36 74.8283 1172.03 76.5604 1172.51 77.4264C1173.09 78.3887 1173.86 79.2548 1174.44 80.217C1174.73 80.6019 1175.5 81.7566 1174.54 81.8529C1173.86 81.9491 1173.96 81.1793 1173.67 80.7944C1173.28 80.3132 1172.61 80.3132 1172.13 80.6019C1172.03 80.6982 1171.84 80.6981 1171.75 80.7944C1171.55 80.6981 1171.36 80.6019 1171.17 80.5057C1170.78 80.4095 1170.3 80.3132 1169.92 80.5057C1169.72 80.6019 1169.53 80.7944 1169.34 80.8906C1169.15 80.9868 1168.95 80.8906 1168.76 80.8906C1168.67 80.8906 1168.57 81.0831 1168.47 81.0831C1168.18 81.2755 1167.99 81.468 1167.9 81.6604C1167.7 82.0453 1167.7 82.2378 1167.22 82.334C1166.84 82.4302 1166.36 82.5265 1165.97 82.6227C1165.11 82.8151 1164.14 82.8151 1163.37 83.2C1162.8 83.4887 1162.41 83.8736 1162.03 84.451C1161.64 84.8359 1161.45 85.4132 1161.26 85.8944C1161.26 85.8944 1161.16 85.7982 1161.06 85.7982C1160.87 85.7982 1160.58 85.7982 1160.49 85.7982C1160.2 85.7982 1160.01 85.8944 1159.81 85.9906C1159.72 86.0868 1159.72 86.0868 1159.52 86.1831C1159.43 86.2793 1159.24 86.1831 1159.04 86.2793C1158.66 86.3755 1158.47 86.6642 1158.27 86.9529C1158.18 87.1453 1158.18 87.3378 1158.08 87.5302C1157.98 87.7227 1157.79 87.9151 1157.7 88.1076C1157.41 88.4925 1157.31 88.8774 1157.12 89.3585C1156.93 89.7434 1156.64 89.9359 1156.25 90.1283C1155.96 90.3208 1155.58 90.3208 1155.29 90.417C1155.1 90.5132 1155 90.7057 1154.91 90.8981C1154.81 91.0906 1154.71 91.1868 1154.71 91.3793C1154.52 91.3793 1154.33 91.3793 1154.23 91.2831C1154.81 90.6095 1156.06 90.2246 1156.06 89.0698C1156.06 88.2038 1155.39 87.7227 1154.81 87.1453C1155 87.1453 1155.1 87.1453 1155.29 87.1453C1155.58 87.1453 1155.77 87.2416 1156.06 87.2416C1156.64 87.2416 1157.22 86.6642 1157.6 86.3755C1157.7 86.2793 1157.89 86.1831 1157.98 85.9906C1157.98 85.8944 1157.98 85.7019 1157.98 85.6057C1157.98 85.317 1157.98 85.1246 1157.79 84.9321C1157.7 84.7397 1157.41 84.6434 1157.31 84.5472C1157.02 84.3548 1156.73 84.451 1156.54 84.3548C1156.35 84.2585 1156.16 84.0661 1156.06 83.8736C1155.87 83.5849 1156.06 83.2963 1155.96 82.9114C1155.96 82.7189 1155.77 82.5264 1155.68 82.334C1155.39 81.8529 1155.1 81.5642 1154.42 81.2755C1154.33 80.9868 1154.04 80.8906 1153.85 80.7944C1153.75 80.6981 1153.65 80.6019 1153.56 80.4095C1152.98 79.9283 1152.21 79.9283 1151.54 80.0246C1150.29 80.1208 1149.42 80.6019 1148.36 81.2755C1147.88 81.5642 1147.4 81.8529 1146.82 82.0453C1146.15 82.2378 1145.57 82.5265 1144.99 82.9114C1144.03 83.3925 1143.17 83.9698 1142.3 84.6434C1141.63 85.2208 1141.15 85.8944 1140.57 86.6642C1140.18 87.2415 1140.18 87.434 1140.18 88.3C1139.7 89.3585 1138.55 89.6472 1137.78 90.417C1137.3 90.8981 1137.01 91.4755 1136.72 92.0529C1136.43 93.0151 1136.24 94.0736 1136.05 95.0359C1135.95 95.517 1135.18 96.6717 1135.95 96.8642C1136.33 96.9604 1137.2 96.8642 1137.58 96.8642C1137.97 96.8642 1138.26 96.6717 1138.64 96.6717C1138.93 96.6717 1139.22 96.768 1139.51 96.8642C1140.18 97.1529 1140.57 97.8265 1140.86 98.4038C1141.15 98.8849 1141.43 99.4623 1142.11 99.4623C1143.17 99.4623 1144.51 98.9812 1145.19 98.0189C1145.86 97.1529 1144.61 95.9981 1144.42 95.2283C1144.13 94.1698 1144.32 93.3038 1144.61 92.2453C1144.71 91.668 1144.9 91.1868 1145.19 90.6095C1145.57 89.9359 1146.05 89.0698 1146.63 88.5887C1147.5 87.8189 1147.98 88.3 1148.36 89.1661C1148.55 89.6472 1148.36 90.2246 1148.07 90.7057C1147.69 91.2831 1147.11 91.668 1146.73 92.2453C1146.53 92.6302 1146.25 93.1114 1146.05 93.4963C1145.76 94.0736 1146.63 94.7472 1147.11 94.8434C1147.78 95.0359 1148.46 94.651 1149.04 94.4585C1149.52 94.3623 1150 94.3623 1150.58 94.3623C1151.06 94.3623 1151.35 94.4585 1151.73 94.651C1151.92 94.7472 1152.21 94.9397 1152.02 95.2283C1151.63 95.8057 1150.38 95.517 1149.81 95.7095C1149.61 95.8057 1149.04 95.9981 1148.84 96.1906C1148.75 96.2868 1148.84 96.5755 1148.84 96.6717C1148.84 96.8642 1148.75 97.1529 1148.65 97.3453C1148.46 98.2114 1148.07 98.6925 1147.4 99.2699C1146.73 99.8472 1145.57 100.425 1144.71 100.617C1143.94 100.713 1143.26 100.906 1142.59 101.387C1142.3 101.579 1142.01 101.772 1141.63 101.868C1141.34 101.964 1140.95 101.868 1140.66 101.772C1139.99 101.676 1139.12 101.483 1138.45 101.676C1137.68 101.964 1137.58 102.542 1137.1 103.023C1136.33 103.792 1135.56 104.659 1134.7 105.332C1134.02 105.813 1133.64 106.294 1132.87 106.391C1132.2 106.487 1131.43 106.583 1131.04 107.16C1130.75 107.545 1130.95 108.315 1131.33 108.604C1131.71 109.085 1131.81 109.662 1131.81 110.24C1131.81 110.817 1131.91 111.298 1131.43 111.683C1131.14 111.972 1130.66 111.876 1130.18 111.876C1129.6 111.876 1128.73 111.779 1128.25 112.068C1128.06 112.164 1127.96 112.357 1128.06 112.549C1127.87 112.549 1127.67 112.453 1127.48 112.549C1127.29 112.645 1127.19 112.742 1127.1 112.934C1127 113.319 1127.29 113.608 1127.29 113.992C1127.29 114.185 1127.19 114.281 1127.19 114.474C1127.1 114.57 1126.9 114.666 1126.9 114.762C1126.33 115.243 1126.33 116.109 1126.52 116.879C1126.61 117.168 1126.71 117.553 1126.81 117.842C1126.9 118.034 1127.1 118.13 1127.19 118.323C1127.29 118.419 1127.29 118.515 1127.29 118.611C1127.58 118.804 1128.54 118.515 1128.73 118.323C1129.02 118.13 1129.21 117.745 1129.6 117.842C1129.79 117.938 1129.98 118.13 1130.18 118.13C1130.66 118.226 1131.23 118.034 1131.62 117.842C1132.1 117.649 1132.68 117.457 1133.06 117.072C1133.45 116.591 1133.93 116.013 1134.22 115.532C1134.51 114.955 1134.41 114.185 1134.6 113.511C1134.79 112.838 1134.99 112.357 1135.76 112.549C1136.14 112.645 1136.62 113.03 1137.01 112.742C1137.58 112.453 1137.97 111.683 1138.45 111.394C1138.93 111.202 1139.32 111.491 1139.7 111.779C1140.09 111.972 1140.57 112.357 1140.66 112.838C1140.76 113.03 1140.76 113.319 1140.86 113.511C1140.95 113.8 1140.95 113.704 1141.24 113.8C1141.82 114.089 1142.2 114.474 1142.78 114.762C1143.17 114.955 1143.84 115.34 1143.94 115.821C1144.03 116.206 1142.78 118.323 1143.45 118.419C1143.65 118.419 1144.03 118.13 1144.13 118.034C1144.42 117.745 1144.71 117.457 1144.9 117.168C1145.19 116.687 1145.38 115.917 1145.28 115.34C1145.28 114.762 1145.09 114.666 1144.61 114.377C1144.03 114.089 1143.65 113.704 1143.07 113.415C1142.68 113.223 1142.49 113.03 1142.3 112.645C1142.11 111.972 1142.11 111.587 1141.15 110.817C1141.82 109.951 1141.24 109.759 1141.63 109.662C1141.72 109.662 1142.01 109.759 1142.11 109.855C1142.68 110.143 1142.88 110.721 1143.36 111.202C1143.74 111.587 1144.22 111.587 1144.71 111.876C1145.09 112.164 1145.28 112.357 1145.67 112.549C1146.05 112.742 1146.25 112.934 1146.44 113.319C1146.73 114.185 1146.73 115.147 1147.11 115.917C1147.4 116.398 1147.88 117.938 1148.65 117.649C1149.32 117.457 1148.75 116.687 1148.75 116.206C1148.75 115.532 1148.94 115.051 1149.52 114.762C1150.09 114.57 1150.77 114.762 1151.35 114.474C1151.92 114.185 1152.21 113.608 1152.21 113.03C1152.21 112.068 1152.4 111.491 1152.88 110.721C1153.27 110.143 1153.56 109.277 1154.42 109.374C1154.81 109.47 1155 109.662 1155.29 109.951C1155.39 110.047 1155.58 110.528 1155.77 110.528C1156.06 110.528 1156.06 110.143 1156.16 110.047C1156.35 109.759 1156.64 109.566 1156.83 109.374C1157.12 109.181 1159.04 108.315 1159.24 108.892C1159.33 109.181 1158.75 109.566 1158.66 109.662C1158.27 110.047 1157.89 110.24 1157.98 110.913C1158.37 110.817 1158.56 110.24 1158.95 110.143C1159.24 110.047 1159.52 110.143 1159.72 110.336C1160.2 110.625 1160.58 110.913 1160.68 111.491C1161.06 111.587 1161.45 111.491 1161.74 111.683C1162.03 111.779 1162.41 111.876 1162.6 112.068C1162.8 112.357 1162.89 113.126 1162.99 113.511C1163.08 113.8 1162.6 114.762 1162.89 114.859C1162.8 114.955 1162.6 115.147 1162.51 115.243C1162.41 115.147 1162.22 115.051 1162.12 114.955C1161.83 114.762 1161.55 114.666 1161.16 114.474C1160.29 114.089 1159.52 113.896 1158.56 113.992C1157.79 113.992 1157.12 114.185 1156.45 114.474C1155.77 114.666 1155.1 114.57 1154.42 114.57C1153.56 114.666 1152.69 115.917 1152.79 116.783C1152.79 117.36 1153.56 117.553 1154.04 117.745C1154.42 117.938 1154.81 117.938 1155.1 118.13C1155.68 118.323 1156.06 118.708 1156.54 118.9C1157.21 119.189 1157.79 118.996 1158.37 119.477C1158.75 119.862 1159.04 120.247 1159.04 120.825C1159.04 121.402 1158.66 121.883 1158.47 122.46C1158.27 122.845 1157.98 123.038 1157.7 123.23C1156.93 123.615 1156.45 123.326 1155.68 123.038C1155.29 122.942 1155 122.845 1154.62 122.845C1154.52 122.845 1154.42 122.845 1154.33 123.038C1153.46 122.364 1152.31 121.883 1151.35 121.883C1150.29 121.787 1149.23 122.268 1148.17 122.268C1148.17 122.653 1148.27 122.942 1148.27 123.23C1148.27 123.808 1148.36 124.481 1148.17 124.962C1148.07 125.347 1147.78 125.732 1147.4 125.828C1147.01 125.925 1146.82 125.732 1146.53 125.54C1146.15 125.251 1145.76 125.155 1145.57 124.674C1145.38 124.289 1145.09 123.904 1144.8 123.519C1144.51 123.23 1144.22 122.845 1144.03 122.557C1143.74 122.268 1143.36 122.268 1142.97 121.979C1142.11 121.402 1141.15 121.306 1140.09 121.209C1139.51 121.209 1138.55 121.017 1138.64 120.247C1138.74 119.67 1139.61 119.285 1139.99 118.9C1140.57 118.226 1139.03 117.745 1138.64 117.745C1137.78 117.649 1137.01 117.842 1136.24 118.226C1135.47 118.611 1134.7 118.9 1133.93 119.189C1133.16 119.477 1132.48 119.477 1131.71 119.381C1131.23 119.285 1130.75 119.189 1130.18 119.381C1129.89 119.477 1129.41 119.766 1128.54 119.862C1127.19 121.017 1125.36 122.268 1125.85 124.289C1126.04 125.059 1124.79 125.54 1124.21 125.828C1123.73 126.117 1123.34 126.598 1122.96 126.983C1122.38 127.56 1121.71 128.042 1121.42 128.811C1121.23 129.292 1121.32 129.87 1121.13 130.351C1120.84 130.928 1120.55 131.506 1120.55 132.179C1120.46 133.045 1120.36 133.911 1120.36 134.777C1120.36 135.451 1120.36 136.221 1120.75 136.798C1121.03 137.279 1121.51 137.568 1121.9 138.049C1122.28 138.626 1122.28 139.396 1122.57 139.974C1122.77 140.455 1123.25 140.743 1123.63 141.128C1123.82 141.321 1124.02 141.417 1124.31 141.513C1124.59 141.513 1124.98 141.513 1125.17 141.706C1125.46 141.898 1125.56 142.283 1125.85 142.476C1126.13 142.668 1126.42 142.764 1126.71 142.957C1127 143.053 1127.19 143.245 1127.38 143.438C1127.87 143.63 1128.35 143.63 1128.83 143.534C1129.21 143.438 1129.6 143.342 1129.98 143.438C1130.56 143.534 1130.85 143.438 1131.43 143.342C1131.71 143.245 1131.91 143.342 1132.2 143.245C1132.58 143.245 1133.06 142.957 1133.45 142.86C1133.93 142.668 1134.41 142.572 1134.99 142.668C1135.28 142.764 1135.47 143.245 1135.76 143.149C1135.76 142.86 1135.85 142.379 1135.95 142.091C1136.14 141.802 1136.33 141.898 1136.72 142.091C1137.1 142.283 1137.49 142.764 1137.78 143.149C1138.07 143.63 1138.07 144.208 1138.64 144.304C1139.12 144.496 1140.09 144.4 1140.38 144.881C1140.76 145.651 1140.38 146.228 1140.09 146.902C1139.8 147.576 1139.32 148.153 1140.09 148.73C1140.28 148.826 1140.47 148.923 1140.66 149.115C1140.76 149.308 1140.86 149.5 1141.05 149.596C1141.43 149.981 1142.01 149.981 1142.11 150.655C1142.3 151.425 1142.11 152.483 1142.49 153.157C1142.88 153.926 1143.45 154.6 1143.74 155.562C1144.03 156.717 1143.55 157.679 1142.68 158.449C1142.3 158.834 1141.91 159.123 1141.82 159.7C1141.63 160.277 1141.72 160.374 1142.4 161.047C1142.68 161.721 1143.26 162.106 1143.55 162.683C1144.13 163.934 1144.03 165.281 1144.22 166.725C1144.32 167.398 1144.51 168.072 1144.71 168.745C1144.9 169.323 1145.38 169.804 1145.67 170.381C1145.96 170.862 1146.15 171.343 1146.44 171.728C1146.73 172.209 1146.73 172.883 1146.73 173.364C1146.73 173.942 1146.73 174.423 1146.53 174.904C1146.44 175.192 1146.34 175.674 1146.53 175.962C1146.92 176.443 1148.07 175.866 1148.55 175.674C1149.13 175.481 1149.81 175.289 1150.29 175C1150.77 174.711 1151.25 174.23 1151.83 173.942C1152.21 173.845 1152.5 173.557 1152.88 173.364C1153.85 172.787 1154.81 172.113 1155.58 171.247C1156.35 170.477 1157.31 169.323 1157.7 168.264C1157.89 167.591 1157.7 166.917 1158.56 166.628C1159.14 166.436 1159.81 166.147 1159.81 165.474C1159.81 165.089 1159.72 164.704 1159.62 164.319C1159.43 163.742 1159.52 163.26 1159.52 162.683C1159.52 161.913 1160.39 161.047 1160.97 160.566C1161.35 160.181 1161.74 159.989 1162.22 159.796C1162.8 159.604 1163.28 159.315 1163.66 158.834C1163.95 158.353 1164.24 157.872 1164.34 157.294C1164.34 157.102 1164.34 156.909 1164.34 156.621C1164.34 156.14 1164.53 155.659 1164.53 155.274C1164.62 154.6 1164.24 154.023 1163.85 153.445C1163.66 153.06 1163.47 152.676 1163.28 152.387C1163.08 152.098 1162.8 151.906 1162.7 151.617C1162.51 151.232 1162.7 150.943 1162.89 150.655C1163.28 150.174 1163.57 149.596 1163.95 149.019C1164.24 148.634 1164.53 148.345 1164.82 147.96C1165.01 147.672 1165.2 147.383 1165.39 147.094C1165.78 146.517 1166.45 146.325 1166.93 145.94C1167.32 145.651 1167.7 145.362 1168.09 144.977C1168.57 144.592 1168.86 144.015 1169.24 143.534C1170.3 142.283 1171.46 141.128 1172.51 139.877C1172.71 139.685 1173.09 139.108 1173.19 138.819C1173.28 138.242 1172.03 138.434 1171.65 138.434C1170.78 138.53 1170.01 138.915 1169.24 139.3C1168.38 139.781 1167.22 139.974 1166.26 139.974C1165.68 139.974 1165.39 139.492 1165.01 139.108C1164.82 138.915 1164.72 138.723 1164.62 138.434C1164.62 138.145 1164.72 137.76 1164.62 137.472C1164.53 137.279 1164.43 137.279 1164.34 137.087C1164.24 136.894 1164.24 136.606 1164.24 136.413C1164.24 136.221 1164.14 136.028 1164.05 135.836C1163.95 135.547 1163.95 135.259 1163.95 135.066C1163.85 134.489 1163.37 134.296 1162.89 134.008C1162.41 133.719 1161.83 133.142 1161.45 132.757C1161.16 132.372 1160.97 131.891 1160.87 131.409C1160.58 130.64 1160.29 130.255 1159.62 129.87C1159.14 129.581 1158.75 129.196 1158.66 128.619C1158.56 128.138 1158.75 127.56 1158.75 126.983C1158.75 126.598 1158.75 126.213 1158.66 125.828C1158.95 125.828 1159.24 125.925 1159.52 126.021C1160.29 126.309 1161.26 126.598 1161.64 127.368C1162.12 128.234 1162.22 129.196 1162.51 130.159C1162.89 131.025 1163.37 131.794 1163.76 132.66C1164.14 133.43 1164.62 134.008 1165.2 134.585C1165.59 135.066 1165.78 135.643 1166.26 136.125C1167.03 136.798 1166.74 137.664 1166.84 138.626C1167.32 138.723 1168.09 138.242 1168.38 137.953C1169.05 137.376 1169.63 136.798 1170.3 136.317C1171.17 135.74 1171.75 134.777 1173 134.777C1174.15 133.526 1175.21 133.526 1175.98 132.66C1176.65 131.987 1177.13 131.217 1177.61 130.351C1177.81 130.062 1178.1 129.389 1178 129.004C1177.9 128.619 1177.42 128.426 1177.04 128.426C1176.56 128.33 1176.17 128.234 1175.69 128.234C1175.21 128.234 1174.82 128.33 1174.82 127.753C1174.82 127.56 1174.92 126.983 1174.82 126.791C1174.54 126.406 1173.86 126.887 1173.57 127.079C1172.61 127.657 1171.36 128.715 1170.78 127.176C1170.69 126.791 1170.49 126.406 1170.4 126.117C1170.3 125.636 1170.11 125.443 1169.82 124.962C1169.44 124.385 1168.57 123.808 1168.47 123.038C1168.47 122.653 1168.76 122.364 1168.95 121.979C1169.05 121.883 1169.05 121.787 1169.05 121.691C1169.53 122.268 1169.82 122.845 1170.49 123.423C1170.98 123.904 1171.07 124.192 1171.65 124.289C1172.23 124.385 1172.8 124.289 1173.38 124.481C1173.57 124.577 1173.67 124.674 1173.86 124.77C1174.34 125.059 1174.92 125.059 1175.31 125.347C1175.5 125.54 1175.69 125.828 1175.88 125.828C1175.98 125.828 1176.27 125.732 1176.36 125.732C1176.85 125.636 1177.42 125.732 1177.9 125.828C1178.87 125.925 1179.64 126.406 1180.6 126.598C1181.37 126.791 1182.14 126.694 1182.52 127.464C1182.91 128.138 1182.71 129.004 1183.29 129.581C1183.77 130.062 1184.25 129.581 1184.83 129.581C1185.12 129.581 1185.51 129.677 1185.7 129.774C1186.08 130.062 1185.99 130.543 1186.37 130.832C1187.05 131.409 1187.43 130.447 1187.72 129.966C1187.81 129.774 1188.97 127.753 1189.35 128.33C1189.45 128.523 1189.16 129.004 1189.16 129.1C1188.97 129.966 1188.87 130.928 1188.68 131.794C1188.58 132.276 1188.3 133.142 1188.49 133.623C1188.58 133.911 1188.97 134.104 1189.16 134.296C1189.35 134.489 1189.55 134.97 1189.84 135.162C1189.93 135.259 1190.12 135.259 1190.22 135.355C1190.61 135.547 1190.7 135.836 1190.8 136.221C1190.99 137.183 1190.61 138.145 1190.8 139.011C1190.99 139.685 1191.57 140.166 1192.05 140.551C1192.53 140.936 1193.49 140.84 1193.97 140.359C1194.65 139.685 1194.45 138.53 1194.45 137.664C1194.45 136.702 1194.65 136.125 1195.22 135.259C1195.8 134.489 1196.28 133.623 1196.86 132.949C1197.34 132.372 1197.92 131.794 1198.59 131.506C1198.98 131.313 1199.27 131.121 1199.55 130.832C1199.75 130.543 1199.84 130.159 1200.04 129.87C1200.52 129.292 1201.77 128.523 1202.25 129.581C1202.44 130.062 1202.25 130.736 1202.35 131.217C1202.44 131.698 1202.63 132.083 1202.92 132.468C1203.88 133.911 1204.65 131.313 1205.62 132.179C1205.91 132.468 1206 132.66 1206.29 132.853C1206.58 133.045 1206.68 133.045 1206.77 133.43C1206.87 133.815 1206.77 134.296 1206.87 134.777C1206.96 135.066 1206.96 135.259 1206.96 135.451C1207.06 136.028 1207.45 136.317 1207.83 136.702C1207.83 136.702 1207.83 136.798 1207.93 136.798C1208.02 136.991 1208.12 137.279 1208.21 137.472C1208.41 137.76 1208.6 138.049 1208.6 138.434C1208.6 138.626 1208.6 138.819 1208.6 139.011C1208.6 139.204 1208.7 139.396 1208.7 139.589C1208.79 139.974 1208.7 140.359 1208.79 140.743C1208.7 140.936 1208.6 141.128 1208.6 141.321C1208.41 141.994 1208.7 142.283 1209.08 142.86C1209.27 143.149 1209.27 143.534 1209.47 143.726C1209.66 143.919 1209.95 144.111 1210.14 144.304C1210.43 144.592 1210.62 144.881 1210.81 145.17C1210.81 145.266 1210.72 145.362 1210.72 145.459V145.555C1210.52 145.459 1210.33 145.362 1210.04 145.362C1209.66 145.266 1209.66 144.881 1209.27 144.689C1208.98 144.592 1208.79 144.592 1208.6 144.4C1208.41 144.304 1208.41 144.208 1208.21 144.111C1208.12 144.111 1208.02 144.111 1207.93 144.111C1207.73 144.015 1207.73 143.919 1207.54 143.823C1207.06 143.342 1206.39 142.86 1205.91 142.379C1205.81 142.668 1205.52 142.957 1205.71 143.438C1206 144.015 1206.58 144.208 1206.96 144.689C1207.35 145.074 1207.25 145.747 1207.64 146.132C1207.83 146.325 1208.12 146.421 1208.31 146.709C1208.5 146.902 1208.6 147.094 1208.89 147.287C1209.08 147.383 1209.47 147.383 1209.66 147.576C1209.85 147.768 1209.95 148.057 1209.95 148.345C1209.95 148.442 1210.04 148.538 1210.04 148.538C1209.95 149.019 1209.75 149.404 1209.66 149.885C1210.91 150.751 1210.91 150.847 1210.81 150.943Z" fill="#CAD4FF"/>
<path d="M1078.69 131.41C1078.6 131.41 1078.5 131.41 1078.41 131.313C1078.31 131.217 1078.31 131.121 1078.21 131.025C1078.12 130.929 1078.02 130.832 1077.92 130.832C1077.83 130.736 1077.83 130.64 1077.73 130.64C1077.44 130.544 1076.96 130.736 1076.67 130.832C1076.29 130.929 1075.81 131.025 1075.42 131.025C1075.23 131.025 1075.04 131.025 1074.94 130.832C1074.85 130.736 1074.85 130.544 1074.85 130.544C1074.75 130.447 1074.65 130.544 1074.56 130.447C1074.36 130.447 1074.27 130.255 1074.08 130.255C1073.88 130.159 1073.69 130.159 1073.5 130.159C1073.4 130.159 1073.21 130.159 1073.11 130.159C1072.73 130.159 1072.54 130.255 1072.15 130.447C1071.86 130.159 1071.77 130.159 1071.57 130.351C1071.67 130.447 1072.05 130.544 1072.15 130.544C1072.34 130.544 1072.54 130.447 1072.63 130.544C1072.82 130.64 1072.63 130.929 1072.82 131.121C1073.02 131.41 1073.31 131.313 1073.59 131.313C1073.79 131.313 1074.08 131.217 1074.27 131.313C1074.36 131.41 1074.46 131.41 1074.65 131.506C1074.85 131.506 1075.04 131.506 1075.23 131.602C1075.33 131.602 1075.42 131.698 1075.52 131.698C1075.71 131.698 1075.9 131.698 1076 131.795C1076.1 131.891 1076.19 131.987 1076.29 131.987C1076.48 131.987 1076.67 131.891 1076.87 131.891C1076.96 131.891 1077.15 131.891 1077.25 131.891C1077.44 131.891 1077.64 131.987 1077.73 132.083C1077.92 132.179 1077.92 132.372 1078.12 132.372C1078.31 132.372 1078.79 132.276 1078.98 132.083C1079.18 131.987 1079.08 131.891 1078.98 131.795C1078.89 131.602 1078.79 131.506 1078.69 131.41Z" fill="#CAD4FF"/>
<path d="M1083.41 133.238C1083.22 133.142 1083.22 133.142 1083.02 133.045C1082.83 133.045 1082.64 133.045 1082.45 132.949C1082.35 132.853 1082.25 132.853 1082.06 132.757C1081.87 132.757 1081.68 132.757 1081.48 132.661C1081.39 132.564 1081.29 132.372 1081.1 132.372C1080.91 132.276 1080.72 132.276 1080.62 132.372C1080.43 132.372 1080.23 132.661 1080.14 132.853C1080.33 133.238 1080.62 133.527 1080.81 133.815C1080.91 133.719 1081.29 133.719 1081.48 133.719C1081.58 133.719 1081.77 133.623 1081.87 133.623C1082.06 133.623 1082.16 133.911 1082.35 134.008C1082.64 134.2 1083.02 134.008 1083.22 133.815C1083.31 133.719 1083.51 133.623 1083.51 133.527C1083.79 133.334 1083.51 133.334 1083.41 133.238Z" fill="#CAD4FF"/>
<path d="M1172.13 157.968C1171.84 157.776 1171.75 157.776 1171.26 157.872C1170.88 158.642 1170.49 159.411 1170.01 160.085C1169.92 159.989 1169.82 159.989 1169.63 159.989C1169.53 159.989 1169.44 159.893 1169.24 159.796C1168.76 159.604 1168.38 159.796 1167.99 159.989C1167.61 160.181 1167.51 160.277 1167.51 160.759C1167.51 161.24 1167.61 161.625 1167.61 162.106C1167.61 162.491 1167.61 162.876 1167.61 163.26C1167.51 163.742 1167.22 164.03 1167.03 164.415C1166.84 164.8 1166.74 165.185 1166.55 165.57C1166.26 166.051 1166.07 166.436 1166.07 166.917C1165.97 169.034 1169.72 167.591 1169.34 166.243C1170.01 165.57 1170.49 164.415 1170.78 163.453C1170.88 162.972 1171.17 162.587 1171.26 162.106C1171.36 161.625 1171.36 161.24 1171.55 160.855C1171.75 160.47 1172.03 160.085 1172.23 159.7C1172.42 159.315 1172.61 159.123 1172.51 158.738C1172.51 158.449 1172.42 158.064 1172.13 157.968Z" fill="#CAD4FF"/>
<path d="M1130.56 99.8473C1130.66 100.04 1130.95 100.232 1131.04 100.521C1131.23 101.002 1130.95 101.579 1130.85 102.06C1130.85 102.445 1131.14 102.83 1131.14 103.215C1131.14 103.504 1131.33 104.081 1131.23 104.37C1131.14 104.466 1130.95 104.659 1130.85 104.755C1130.66 104.947 1130.56 105.236 1130.46 105.525C1130.37 106.006 1130.37 106.198 1130.85 106.391C1131.04 106.487 1131.62 106.872 1130.85 106.294C1132 106.102 1133.54 105.91 1134.7 105.332C1134.99 105.236 1135.56 105.043 1135.56 104.659C1135.76 103.985 1134.41 103.408 1133.93 103.215C1133.35 103.023 1132.58 102.734 1132.39 102.06C1132.29 101.676 1132.1 101.483 1131.91 101.194C1131.81 101.002 1131.52 100.521 1131.52 100.328C1131.43 99.8473 1132 99.751 1132.2 99.4624C1132.39 99.2699 1132.39 98.885 1132.39 98.5963C1132.29 97.8265 1130.75 97.4416 1130.27 98.1152C1130.08 98.4039 1130.18 98.9812 1130.27 99.2699C1130.37 99.4624 1130.46 99.6548 1130.56 99.8473Z" fill="#CAD4FF"/>
<path d="M1128.06 101.291C1127.67 101.772 1127.67 102.445 1127.67 103.023C1127.67 103.311 1127.77 103.6 1127.67 103.793C1127.58 104.081 1127.1 104.177 1127 104.562C1126.9 105.044 1127.67 105.236 1127.96 105.236C1128.35 105.236 1128.64 105.14 1128.15 104.851C1128.92 104.081 1129.69 103.311 1130.37 102.445C1129.98 102.638 1129.98 101.964 1129.89 101.868C1129.79 101.579 1129.41 101.291 1129.21 101.098C1128.83 100.617 1128.44 100.906 1128.06 101.291Z" fill="#CAD4FF"/>
<path d="M1165.78 79.6397C1166.07 79.8321 1166.16 80.217 1166.45 80.3133C1166.74 80.4095 1167.03 80.217 1167.22 80.0246C1167.61 79.8321 1168.18 79.5435 1167.7 79.0623C1166.93 78.2925 1166.16 77.4265 1165.59 76.4642C1165.88 75.8869 1165.97 75.0208 1166.07 74.4435C1166.07 73.8661 1166.16 73.5774 1166.55 73.0963C1167.13 72.2302 1167.61 71.1718 1168.47 70.5944C1169.05 70.2095 1169.72 70.1133 1170.21 69.6321C1170.88 68.9586 1171.65 67.9001 1169.34 67.8038C1168.76 67.9001 1168.18 68.7661 1167.8 69.2472C1166.84 70.4019 1165.88 71.5567 1164.82 72.7114C1163.57 73.9623 1162.41 76.368 1162.8 78.2925C1163.08 79.6397 1164.82 79.1586 1165.78 79.6397Z" fill="#CAD4FF"/>
<path d="M1120.17 82.5265C1120.26 81.8529 1120.36 81.1794 1120.55 80.602C1120.65 80.2171 1120.84 79.8322 1120.94 79.351C1121.03 78.7737 1120.94 78.2926 1120.84 77.7152C1120.75 77.0416 1120.74 76.368 1120.94 75.6944C1121.03 75.1171 1121.23 74.8284 1121.71 74.4435C1122.09 74.1548 1122.77 73.7699 1122.96 73.385C1123.15 73.0963 1123.05 72.6152 1123.15 72.2303C1123.25 71.7492 1123.34 71.268 1123.34 70.6907C1123.44 69.9209 1123.34 69.4397 1123.73 68.7661C1124.11 68.285 1124.4 67.9001 1124.5 67.3227C1124.59 66.8416 1124.69 66.4567 1124.79 65.9756C1124.88 65.5907 1124.79 65.2058 1124.88 64.9171C1125.08 64.436 1125.36 63.9548 1125.65 63.4737C1125.85 63.0888 1126.13 62.9926 1126.52 62.8001C1127.1 62.6077 1127.58 62.2227 1128.06 62.0303C1128.25 61.9341 1128.64 61.8378 1128.73 61.5492C1128.83 61.2605 1128.64 60.7794 1128.54 60.4907C1128.25 59.8171 1127.1 59.5284 1126.42 59.7209C1125.85 59.8171 1125.36 60.2982 1124.79 60.3944C1124.4 60.4907 1124.11 60.4907 1123.73 60.4907C1123.34 60.4907 1122.67 60.5869 1122.38 60.3944C1122.28 60.2982 1122.19 60.202 1122.09 60.1058C1121.9 59.9133 1121.71 59.8171 1121.51 59.6246C1121.32 59.2397 1121.42 58.7586 1121.32 58.3737C1121.23 58.085 1121.13 58.1812 1121.42 57.8926C1121.71 57.6039 1121.9 57.4114 1122.28 57.3152C1122.67 57.1227 1124.4 56.9303 1123.63 56.2567C1123.25 55.968 1122.67 55.7756 1122.28 55.5831C1121.51 55.2944 1120.84 55.102 1120.07 55.102C1119.59 55.102 1119.21 55.0058 1118.72 54.8133C1117.76 54.5246 1116.99 55.4869 1116.41 56.0643C1115.84 56.6416 1114.59 56.5454 1113.82 56.5454C1112.37 56.5454 1110.74 56.6416 1109.39 57.219C1108.81 57.4114 1108.24 57.7963 1107.85 58.1812C1107.56 58.5661 1107.37 58.951 1106.89 59.2397C1106.41 59.5284 1106.02 59.4322 1105.54 59.4322C1104.68 59.4322 1104 59.6246 1103.23 60.0095C1102.65 60.2982 1102.37 60.6831 1101.98 61.1643C1101.6 61.5492 1101.5 61.9341 1101.4 62.5114C1101.21 63.3775 1100.06 63.9548 1099.29 64.3397C1098.81 64.5322 1098.23 65.1095 1098.23 65.6869C1098.23 65.9756 1098.42 66.3605 1098.42 66.6492C1098.52 67.0341 1098.42 67.3227 1098.23 67.7077C1098.13 67.9001 1098.13 68.1888 1098.13 68.4775C1098.13 68.9586 1098.42 69.2473 1098.81 68.4775C1099.67 68.8624 1100.54 69.1511 1101.4 69.536C1102.27 69.9209 1101.31 69.4397 1102.17 70.2095C1102.75 70.9793 1102.85 71.6529 1102.85 72.519C1102.85 73.5775 1103.62 74.4435 1104.1 75.3095C1104.29 75.6944 1104.48 76.1756 1104.39 76.5605C1104.29 77.1378 1103.71 77.619 1103.42 78.1001C1103.14 78.6775 1102.75 79.4473 1102.94 80.1209C1103.04 80.5058 1103.62 80.8907 1103.91 81.1794C1104.19 81.3718 1104.68 81.5643 1104.77 81.8529C1104.96 82.4303 1104.19 83.2001 1103.91 83.4888C1103.33 84.0661 1102.56 84.7397 1102.17 85.5095C1101.98 85.9907 1101.88 86.568 1102.08 87.1454C1102.37 87.819 1102.94 88.0114 1103.42 88.3963C1103.71 88.685 1103.71 89.1661 1103.52 89.551C1103.33 90.1284 1103.14 90.6095 1103.04 91.1869C1102.94 91.7643 1102.85 92.5341 1103.14 93.0152C1103.42 93.4963 1104 93.9775 1104.48 94.1699C1105.25 94.4586 1106.12 94.5548 1106.6 93.785C1106.89 93.4001 1107.08 92.8227 1107.27 92.3416C1107.56 91.7643 1107.85 91.0907 1108.33 90.5133C1109.1 89.4548 1110.35 89.0699 1111.22 88.2039C1111.99 87.5303 1112.28 86.3756 1113.14 85.8944C1113.53 85.6058 1114.11 85.702 1114.59 85.6058C1115.65 85.4133 1116.61 85.1246 1117.67 84.7397C1118.72 84.451 1119.98 83.6812 1120.17 82.5265Z" fill="#CAD4FF"/>
<path d="M1096.02 85.702C1096.3 85.3171 1096.78 84.7397 1096.78 84.2586C1096.88 83.6812 1096.4 83.2001 1096.11 82.719C1095.92 82.4303 1095.73 82.1416 1095.44 81.9492C1095.15 81.7567 1094.86 81.7567 1094.57 81.5642C1094.09 81.2756 1093.8 80.6982 1093.51 80.2171C1093.22 79.6397 1093.51 79.1586 1093.51 78.485C1093.51 77.8114 1093.22 77.3303 1092.84 76.7529C1092.65 76.4642 1092.36 76.2718 1092.17 75.9831C1092.07 75.8869 1091.78 75.7907 1091.68 75.6944C1091.11 75.2133 1090.05 73.2888 1089.95 73.1925C1090.05 73.6737 1089.86 73.1925 1089.47 73.0963C1089.18 73.0963 1088.7 73.1925 1088.61 72.9039C1088.41 72.519 1088.8 72.0378 1088.89 71.6529C1088.99 71.3642 1089.09 71.0756 1088.99 70.6907C1088.32 70.5944 1088.03 70.6907 1087.55 71.1718C1086.87 71.9416 1086.01 72.3265 1085.43 73.0963C1085.24 73.2888 1084.85 73.8661 1084.56 73.6737C1084.28 73.4812 1084.37 72.7114 1084.37 72.3265C1084.37 72.0378 1084.37 71.7492 1084.47 71.3642C1084.66 70.8831 1085.24 70.2095 1085.24 69.7284C1083.79 69.7284 1082.64 71.7491 1082.06 72.0378C1081.39 73.1925 1081.39 73.0963 1081.77 73.385C1081.97 73.5775 1082.16 73.6737 1082.16 73.9624C1082.16 74.3473 1081.97 74.6359 1081.87 75.0208C1081.87 75.4058 1081.87 75.8869 1081.87 76.2718C1081.97 77.2341 1082.64 78.1963 1083.7 77.8114C1083.99 77.7152 1084.37 77.2341 1084.66 77.1378C1084.95 77.0416 1085.53 77.1378 1085.81 77.2341C1086.1 77.3303 1086.39 77.4265 1086.49 77.619C1086.78 77.9076 1086.78 78.0039 1087.16 78.1963C1088.03 78.5812 1087.84 79.6397 1087.84 80.4095C1087.84 80.7944 1087.84 81.1793 1088.03 81.5642C1088.22 82.0454 1088.22 82.2378 1087.84 82.719C1086.97 83.7775 1085.91 84.5473 1084.76 85.3171C1084.66 85.4133 1083.51 86.0869 1083.41 86.2793C1083.41 86.3756 1083.41 86.4718 1083.51 86.568C1083.6 86.6642 1083.99 86.568 1084.08 86.568C1084.37 86.568 1084.76 86.568 1085.05 86.568C1085.72 86.568 1086.78 86.568 1087.07 87.2416C1087.26 87.7227 1087.74 88.1076 1087.93 88.5888C1088.03 88.7812 1088.12 89.0699 1088.32 89.1661C1088.51 89.2624 1088.8 89.2624 1088.99 89.3586C1089.28 89.4548 1089.47 89.7435 1089.76 89.8397C1090.24 90.0322 1090.82 90.1284 1091.3 90.3208C1092.17 90.6095 1093.03 90.0322 1092.84 89.0699C1092.74 88.5888 1092.26 88.3001 1091.88 88.0114C1091.49 87.7227 1091.3 87.4341 1091.11 86.9529C1090.82 86.2793 1090.91 84.8359 1091.88 84.8359C1092.36 84.8359 1092.65 85.0284 1093.03 85.2208C1093.42 85.4133 1093.8 85.5095 1094.28 85.702C1094.57 85.7982 1094.76 86.0869 1095.05 85.8944C1095.73 85.9907 1095.82 85.7982 1096.02 85.702Z" fill="#CAD4FF"/>
<path d="M1083.99 64.1472C1082.93 64.2434 1082.83 64.917 1082.83 65.7831C1082.83 66.3604 1082.93 67.3227 1083.51 67.6114C1084.28 67.9963 1085.24 67.4189 1085.72 68.1887C1086.1 68.7661 1086.3 69.3434 1087.07 69.3434C1087.55 69.3434 1087.93 69.3434 1088.41 69.4397C1088.61 69.4397 1088.89 69.5359 1089.09 69.6321C1089.38 69.6321 1090.15 69.6321 1090.15 69.151C1090.15 68.6698 1089.66 68.0925 1089.38 67.9C1088.8 67.5151 1088.12 67.6114 1087.55 67.5151C1087.07 67.4189 1086.78 67.2264 1086.39 66.9378C1086.2 66.8415 1085.72 66.4566 1085.72 66.168C1085.82 65.3981 1087.84 65.6868 1088.32 65.6868C1089.95 65.6868 1090.72 66.4566 1092.07 67.3227C1091.49 67.4189 1091.3 67.9963 1091.78 68.1887C1092.07 68.2849 1092.55 68.1887 1092.84 68.0925C1093.32 67.9 1093.13 67.3227 1092.94 67.034C1092.74 66.5529 1092.45 66.168 1092.94 65.7831C1093.42 65.3981 1094.19 65.3981 1094.67 65.1095C1095.05 64.8208 1094.76 64.051 1094.67 63.6661C1094.67 62.3189 1094.96 62.4151 1097.17 60.8755C1097.36 60.7793 1097.55 60.5868 1097.84 60.5868C1098.61 60.3944 1099.29 60.0095 1100.06 59.7208C1100.44 59.6246 1101.31 59.5283 1101.5 59.0472C1101.4 58.8548 1100.83 58.7585 1100.54 58.7585C1100.25 58.6623 1100.06 58.5661 1099.86 58.2774C1099.38 57.5076 1100.83 57.2189 1101.31 57.2189C1101.88 57.2189 1102.37 57.4114 1102.94 57.4114C1103.52 57.4114 1103.81 57.2189 1104.29 57.0265C1105.25 56.6415 1106.5 56.6415 1107.37 55.8717C1108.14 55.1019 1107.75 53.9472 1106.98 53.2736C1106.6 52.9849 1106.22 52.5038 1105.73 52.4076C1104.96 52.3114 1103.91 52.4076 1103.14 52.5038C1101.69 52.6963 1100.35 52.3114 1098.9 52.6C1097.84 52.0227 1096.5 52.1189 1095.25 52.3114C1094.57 52.4076 1093.99 52.5038 1093.42 52.7925C1093.22 52.8887 1092.55 53.0812 1092.45 53.3698C1092.36 53.5623 1092.55 53.7548 1092.55 53.9472C1092.55 54.3321 1092.55 54.717 1092.55 55.1019C1092.55 55.4868 1092.65 55.4868 1092.94 55.7755C1093.22 56.1604 1093.03 56.3529 1092.74 56.834C1092.65 57.0265 1092.65 57.1227 1092.45 57.2189C1092.17 57.3151 1091.59 57.3151 1091.4 57.2189C1090.92 57.0264 1090.92 56.5453 1090.92 55.968C1090.92 55.5831 1090.92 55.1019 1091.01 54.717C1091.11 54.5246 1091.59 53.9472 1091.49 53.7548C1091.01 53.7548 1090.53 53.851 1090.15 54.0434C1089.76 54.1397 1089.38 54.2359 1089.09 54.4283C1088.41 54.8132 1087.84 55.6793 1087.45 56.3529C1087.07 56.834 1086.68 57.3151 1086.39 57.7963C1086.1 58.3736 1085.33 60.3944 1086.39 60.6831C1086.97 60.8755 1087.64 60.6831 1088.22 60.6831C1088.51 60.6831 1088.89 60.6831 1089.18 60.6831C1089.76 60.6831 1090.15 61.1642 1090.24 61.7415C1090.34 62.2227 1090.05 62.8963 1089.86 63.3774C1089.66 63.7623 1089.18 63.7623 1088.7 63.8585C1088.32 63.9548 1087.93 63.9548 1087.45 64.1472C1087.16 64.3397 1086.87 64.5321 1086.49 64.7246C1086.01 64.917 1085.62 64.917 1085.24 64.6283C1084.95 64.4359 1084.85 64.2434 1084.66 64.1472C1084.56 64.1472 1084.18 64.1472 1083.99 64.1472Z" fill="#CAD4FF"/>
<path d="M1084.28 60.202C1084.37 60.0096 1084.47 59.5284 1084.56 59.336C1084.66 58.9511 1084.56 58.4699 1084.37 58.1813C1084.18 57.9888 1083.6 57.6039 1083.41 57.7001C1083.51 58.085 1082.83 58.3737 1082.54 58.5662C1082.35 58.7586 1082.16 58.8548 1082.06 59.1435C1081.97 59.4322 1081.97 59.8171 1081.77 60.0096C1082.35 60.4907 1083.02 60.8756 1083.79 61.1643C1083.99 60.4907 1084.18 60.3945 1084.28 60.202Z" fill="#CAD4FF"/>
<path d="M1081.77 64.1472C1081.29 64.6283 1080.71 65.1095 1080.33 65.7831C1080.33 65.8793 1080.33 65.9755 1080.23 66.0717C1080.14 66.168 1079.85 66.0717 1079.75 65.9755C1079.27 65.5906 1079.37 65.0133 1079.08 64.5321C1078.79 64.051 1078.6 64.2434 1078.41 64.6283C1078.12 65.1095 1078.02 65.7831 1078.31 66.3604C1078.6 66.7453 1078.98 67.034 1079.46 67.1302C1080.04 67.3227 1080.43 67.1302 1081 66.8416C1081.39 66.6491 1081.58 66.6491 1081.87 66.2642C1082.06 65.9755 1082.45 64.917 1081.77 64.1472Z" fill="#CAD4FF"/>
<path d="M1079.75 69.4397C1078.79 69.4397 1077.92 69.6322 1077.06 69.9208C1077.06 70.402 1076.96 70.8831 1076.96 71.3642C1076.96 71.8454 1076.96 72.134 1076.67 72.6152C1076.48 72.9038 1076.19 73.1925 1076.29 73.5774C1076.48 74.0586 1077.35 73.9623 1077.64 73.7699C1078.12 73.4812 1078.6 73.1925 1078.79 72.7114C1078.98 72.3265 1078.98 71.8454 1079.37 71.6529C1079.75 71.4604 1080.23 71.4605 1080.43 70.9793C1080.71 70.5944 1080.81 69.6322 1079.75 69.4397Z" fill="#CAD4FF"/>
<path d="M1073.79 70.6906C1074.17 70.4019 1074.36 70.4019 1074.75 70.2095C1074.75 69.8245 1074.65 69.2472 1074.36 68.9585C1073.88 68.5736 1073.21 69.0547 1072.92 69.4396C1072.63 69.7283 1072.25 70.4019 1071.86 70.5944C1071.38 70.883 1070.8 70.4019 1070.52 70.017C1070.32 69.7283 1070.23 69.4396 1070.03 69.2472C1069.84 69.0547 1069.65 69.0547 1069.36 68.9585C1068.98 68.8623 1069.07 68.6698 1068.98 68.2849C1068.88 67.9 1068.78 67.5151 1068.69 67.034C1068.59 66.2642 1068.49 65.4944 1067.72 65.1095C1066.95 64.7245 1066.28 64.8208 1065.61 65.3019C1064.36 66.2642 1063.3 67.8038 1063.49 69.4396C1063.59 70.3057 1063.97 70.883 1064.55 71.4604C1064.74 71.6529 1064.84 71.9415 1065.03 72.0378C1065.32 72.2302 1065.61 72.2302 1065.99 72.2302C1067.63 72.5189 1065.8 74.3472 1065.7 75.2132C1065.61 75.6944 1065.51 76.0793 1065.99 76.2717C1066.67 76.5604 1067.53 76.2717 1068.21 75.983C1068.78 75.6944 1069.84 74.9245 1070.61 75.3095C1070.8 75.4057 1070.9 75.5981 1071.09 75.7906C1071.28 75.983 1071.57 76.1755 1071.86 76.2717C1072.54 76.4642 1073.4 76.5604 1074.08 76.4642C1074.27 76.3679 1074.56 76.3679 1074.46 76.0793C1074.46 75.983 1074.27 75.983 1074.27 75.8868C1074.08 75.6944 1073.98 75.5981 1074.27 75.0208C1073.59 74.0585 1073.11 73 1072.92 71.8453C1073.21 71.6529 1073.31 71.0755 1073.79 70.6906Z" fill="#CAD4FF"/>
<path d="M1098.04 106.102C1097.55 105.91 1096.88 106.391 1096.3 106.102C1096.11 106.006 1095.34 105.621 1095.34 105.332C1094.57 105.621 1093.8 106.006 1093.03 106.487C1093.03 106.391 1092.45 106.487 1092.26 106.872C1092.07 107.257 1092.26 107.257 1092.55 107.449C1092.84 107.642 1093.22 108.123 1093.51 108.123C1093.71 108.123 1093.99 107.93 1094.19 107.834C1095.15 107.449 1096.01 107.93 1097.07 107.93C1097.65 107.93 1097.94 107.834 1098.13 107.353C1098.42 107.064 1098.52 106.294 1098.04 106.102Z" fill="#CAD4FF"/>
<path d="M1125.65 89.3585C1125.94 88.9736 1125.94 87.8189 1125.46 87.6264C1124.98 87.434 1123.82 88.1076 1123.54 88.3963C1123.25 88.6849 1123.05 88.7812 1122.57 88.7812C1122.38 88.7812 1122.28 88.7812 1122.09 88.6849C1121.32 88.4925 1120.94 88.5887 1119.98 88.5887C1119.69 88.5887 1118.82 88.3963 1118.72 89.3585C1118.63 89.9359 1119.11 90.6095 1119.49 90.8981C1120.07 91.1868 1120.65 91.2831 1121.32 90.9944C1122.09 90.7057 1122.86 90.7057 1123.63 90.5132C1124.31 90.3208 1125.27 89.9359 1125.65 89.3585Z" fill="#CAD4FF"/>
<path d="M194.2 136.3C196.4 142.5 195.6 150 192 158.8C186.7 171.7 177.4 181.6 164.2 188.6C151 195.6 134.6 199.1 115 199.1H35.7L97.8 52.3H172C190.5 52.3 203.2 55.8001 210 62.7001C216.8 69.6 217.8 78.9 213 90.7C210.1 97.7 205.8 103.9 200.2 109.5C194.5 115 187.9 119.4 180.3 122.6C187.4 125.5 192 130.1 194.2 136.3ZM125.9 82.3001L114 110.6H142.3C156.2 110.6 165.1 105.9 169 96.3001C172.9 86.9001 167.9 82.3001 154.1 82.3001H125.9ZM152.1 154.2C156.2 144.3 151.1 139.3 136.6 139.3H102L89.5 169.1H124.2C138.7 169.1 148 164.1 152.1 154.2Z" fill="white"/>
<path d="M327.7 167L314.8 199.1H196.9L257.1 52.4H371L358.1 84.5H284.8L274.7 109.2H339.4L326.9 140.2H262L251.1 167H327.7Z" fill="white"/>
<path d="M417.4 160.1H394.8L379.3 199.1H337.8L396.4 52.4H462.7C475.8 52.4 486.4 54.6 494.3 59C502.3 63.4 507.3 69.7 509.4 77.9C511.5 86.1 510.4 95.7 506.1 106.7C502 117.3 495.9 126.6 487.9 134.5C479.9 142.4 470.4 148.6 459.5 153.1L473.1 199.2H428.7L417.4 160.1ZM464.3 90.7C461.5 86.9 455.9 85 447.4 85H424.5L407.5 128H430.4C438.9 128 446 126.1 451.8 122.4C457.6 118.7 461.8 113.4 464.5 106.6C467.2 99.8 467.1 94.5 464.3 90.7Z" fill="white"/>
<path d="M549.8 52.3H590.8L534.4 199H493L549.8 52.3Z" fill="white"/>
<path d="M638.5 85.2H593.8L606.4 52.3H736.3L724.1 85.2H679.6L636.7 199H595.2L638.5 85.2Z" fill="white"/>
<path d="M798.5 170.6H736.6L714.5 199.1H672.2L791.1 52.3H831.5L842.9 199H799.7L798.5 170.6ZM797.6 140L796 93L760 140H797.6Z" fill="white"/>
</g>
<defs>
<linearGradient id="paint0_linear_187_176" x1="1229" y1="124" x2="1025" y2="124" gradientUnits="userSpaceOnUse">
<stop stop-color="#8A99F0"/>
<stop offset="1" stop-color="#BAC6FC"/>
</linearGradient>
<clipPath id="clip0_187_176">
<rect width="2038.6" height="253.7" fill="white"/>
</clipPath>
</defs>
</svg>
