<svg width="1280" height="480" viewBox="0 0 1280 480" fill="none" xmlns="http://www.w3.org/2000/svg">
<path d="M167 103.057C152.6 96.657 47.6667 188.39 -3 235.057V479.057L1293 467.057C1313.67 398.39 1342.6 255.857 1293 235.057C1231 209.057 1217 117.057 1189 163.057C1161 209.057 1037 209.057 965 189.057C893 169.057 887 129.057 841 145.057C795 161.057 771 203.057 757 209.057C743 215.057 677 209.057 551 129.057C425 49.057 477 -14.943 395 3.05703C313 21.057 209 113.057 195 129.057C181 145.057 185 111.057 167 103.057Z" fill="#F3F0F0"/>
</svg>
