<svg width="260" height="279" viewBox="0 0 260 279" fill="none" xmlns="http://www.w3.org/2000/svg">
<path d="M300.261 151.146C300.261 151.146 277.35 107.801 254.249 90.9546C231.149 74.1087 231.812 42.0731 231.812 42.0731C231.812 42.0731 195.031 107.801 262.012 198.608L299.787 184.08L300.261 151.146Z" fill="#898DCA"/>
<path d="M209.942 170.405C209.942 170.405 187.363 126.918 186.7 98.2892C186.037 69.708 159.292 52.0576 159.292 52.0576C159.292 52.0576 234.273 59.2502 270.77 166.004L237.303 188.765L209.942 170.405Z" fill="#C3C6F4"/>
<path d="M190.676 72.7838C190.676 72.7838 236.592 136.666 257.894 181.62" stroke="#72BBFE" stroke-width="2" stroke-miterlimit="10" stroke-linecap="round"/>
<path d="M112.334 25.1798C112.334 25.1798 177.517 78.8407 206.818 161.982" stroke="#5A86C9" stroke-width="2" stroke-miterlimit="10" stroke-linecap="round"/>
<path d="M202.42 101.698C204.948 90.9891 203.181 81.4077 198.474 80.2972C193.766 79.1866 187.901 86.9674 185.373 97.6761C182.844 108.385 184.611 117.966 189.318 119.077C194.026 120.187 199.891 112.407 202.42 101.698Z" fill="#898DCA"/>
<path d="M182.038 61.3469C185.431 46.9754 183.746 34.2787 178.275 32.9881C172.805 31.6974 165.619 42.3016 162.226 56.6731C158.833 71.0446 160.518 83.7413 165.989 85.032C171.459 86.3226 178.645 75.7185 182.038 61.3469Z" fill="#898DCA"/>
<path d="M151.237 33.2295C153.982 21.6051 152.411 11.2862 147.729 10.1817C143.047 9.07711 137.027 17.6051 134.283 29.2295C131.538 40.8539 133.109 51.1728 137.791 52.2773C142.473 53.3819 148.493 44.8539 151.237 33.2295Z" fill="#898DCA"/>
<path d="M173.585 137.61C184.538 136.535 193.035 131.763 192.562 126.951C192.089 122.14 182.827 119.111 171.873 120.186C160.92 121.261 152.423 126.033 152.896 130.845C153.369 135.656 162.631 138.685 173.585 137.61Z" fill="#898DCA"/>
<path d="M146.081 105.994C160.781 104.551 172.252 98.8485 171.703 93.2567C171.154 87.6648 158.792 84.3015 144.091 85.7445C129.391 87.1875 117.92 92.8904 118.469 98.4823C119.019 104.074 131.381 107.437 146.081 105.994Z" fill="#898DCA"/>
<path d="M124.967 71.9325C136.857 70.7653 146.115 65.9396 145.645 61.154C145.175 56.3684 135.155 53.4351 123.264 54.6023C111.374 55.7695 102.116 60.5952 102.587 65.3808C103.057 70.1664 113.077 73.0996 124.967 71.9325Z" fill="#898DCA"/>
<path d="M122.249 34.9408C125.404 31.3107 120.651 22.0176 111.631 14.184C102.612 6.35039 92.743 2.94276 89.5879 6.57282C86.4327 10.2029 91.1865 19.496 100.206 27.3296C109.225 35.1632 119.094 38.5709 122.249 34.9408Z" fill="#898DCA"/>
<path d="M269.018 177.645C269.018 177.645 229.303 148.874 201.137 144C172.925 139.126 159.434 110.072 159.434 110.072C159.434 110.072 155.505 185.263 255.764 237.126L283.219 207.409L269.018 177.645Z" fill="#8288E2"/>
<path d="M169.374 132.88C169.374 132.88 184.522 162.218 268.308 218.056" stroke="#72BBFE" stroke-width="2" stroke-miterlimit="10" stroke-linecap="round"/>
<path d="M253.729 178.544C253.729 178.544 253.918 129.52 266.651 103.92C279.338 78.2729 263.859 50.2595 263.859 50.2595C263.859 50.2595 326.911 91.4278 309.633 202.961L269.444 207.598L253.729 178.544Z" fill="#A4A8E8"/>
<path d="M39.9558 121.949C39.4351 121.76 66.0857 103.116 82.7956 120.104C98.5114 137.47 103.482 123.416 145.895 132.454C186.558 143.906 162.511 141.161 174.439 159.143C185.043 178.023 184.901 158.244 210.841 169.175C235.693 181.146 226.368 179.206 227.125 199.601C227.125 220.28 218.557 203.34 237.35 214.649C247.101 220.848 239.954 237.646 231.054 248.199C221.729 258.704 210.699 262.915 203.173 242.757C194.558 222.267 186.7 212.046 179.931 206.794C172.972 201.589 167.15 201.399 158.44 201.92C140.878 203.529 143.103 199.175 117.493 177.124C104.144 166.477 97.4226 166.903 91.3162 167.85C85.0677 168.891 79.4347 170.452 64.4763 164.821C33.376 154.884 54.5356 147.407 25.8022 138.18C11.0804 133.921 -0.233037 130.703 0.00364636 127.107C0.192993 123.889 11.7905 120.246 39.9558 121.949Z" fill="#DEE0FF"/>
<path d="M163.552 267.837C163.552 267.837 125.067 237.457 112.712 211.668C100.357 185.878 68.7363 180.768 68.7363 180.768C68.7363 180.768 140.073 156.54 217.232 238.877L196.072 273.373L163.552 267.837Z" fill="white"/>
<path d="M40.1445 131.461C40.1445 131.461 194.462 146.13 242.272 250.707" stroke="#72BBFE" stroke-width="2" stroke-miterlimit="10" stroke-linecap="round"/>
<path d="M109.541 188.292C109.541 188.292 199.055 236.511 219.836 277.727" stroke="#72BBFE" stroke-width="2" stroke-miterlimit="10" stroke-linecap="round"/>
</svg>
