<svg width="482" height="550" viewBox="0 0 482 550" fill="none" xmlns="http://www.w3.org/2000/svg">
<g clip-path="url(#clip0_173_126)">
<path d="M353.037 474.146L345.084 67.0997L264.943 27.4456L267.831 474.146H353.037Z" fill="#A4A8E8"/>
<path d="M175.809 328.732H175.714C175.667 327.596 175.572 326.508 175.43 325.419C172.732 304.646 155.501 292.248 134.673 297.217C112.709 302.469 94.8154 325.041 93.5847 348.37H93.49V474.146H13.0176L13.917 398.34L14.1537 376.714L16.2838 193.349L16.5678 170.399L17.3252 104.009L264.944 27.4456L265.37 90.949L265.559 117.685L266.695 296.412L266.884 322.675L267.879 474.146H175.809V328.732Z" fill="#D0D3FF"/>
<path d="M362.41 44.7647C362.41 44.7647 361.7 59.1973 345.084 67.147L264.943 27.4456C264.943 27.4456 272.186 18.786 267.831 0L362.41 44.7647Z" fill="#8C7DE4"/>
<path d="M267.831 0L0 85.8857C0 85.8857 4.35498 100.318 17.3252 103.915L264.944 27.4456C264.944 27.4456 272.186 18.0289 267.831 0Z" fill="#B8ADFF"/>
<path d="M364.634 134.152C364.634 134.152 363.924 148.585 347.309 156.534L265.653 117.637C265.653 117.637 274.363 108.173 270.056 89.4347L364.634 134.152Z" fill="#8C7DE4"/>
<path d="M270.056 89.4347L0.709961 175.368C0.709961 175.368 2.88745 189.8 15.8577 193.397L265.654 117.637C265.654 117.637 274.411 107.464 270.056 89.4347Z" fill="#B8ADFF"/>
<path d="M368.138 338.622C368.138 338.622 367.428 353.054 350.812 361.004L267.121 322.58C267.121 322.58 279.381 312.454 275.074 293.715L368.138 338.622Z" fill="#E8A656"/>
<path d="M91.3129 354.71L93.4904 374.49L13.87 398.339L13.6807 398.387C3.59796 393.324 4.21334 379.837 4.21334 379.837L14.1541 376.667L93.4904 351.445L91.3129 354.71Z" fill="#FFBE69"/>
<path d="M167.051 306.302C161.087 304.173 154.223 303.747 146.886 305.498C124.921 310.75 107.028 333.322 105.797 356.651H105.703V474.146H93.4424V348.37H93.5371C94.7205 325.041 112.661 302.469 134.625 297.217C147.832 294.046 159.524 297.832 167.051 306.302Z" fill="#8C7DE4"/>
<path d="M175.808 328.732V474.146H105.75V356.651H105.845C107.028 333.322 124.969 310.75 146.933 305.498C154.27 303.747 161.134 304.125 167.098 306.302C167.43 306.681 167.761 307.107 168.092 307.485C171.927 312.264 174.53 318.369 175.43 325.419C175.572 326.508 175.714 327.596 175.808 328.732Z" fill="#BDC1FF"/>
<path d="M175.809 328.732V474.146H108.638V358.449H108.732C109.916 335.12 127.856 312.548 149.821 307.296C156.4 305.734 162.602 305.876 168.093 307.485C171.927 312.264 174.53 318.369 175.43 325.419C175.572 326.508 175.714 327.596 175.809 328.732Z" fill="#B6AAFD"/>
<path d="M93.49 351.445V374.49L91.3125 354.71L93.49 351.445Z" fill="#FFBE69"/>
<path d="M105.75 353.244C105.75 353.244 105.75 369.758 93.4902 374.49V351.445L105.75 353.244Z" fill="#E8A656"/>
<path d="M275.973 301.428C275.925 313.968 268.162 321.586 267.215 322.486C267.168 322.533 267.121 322.58 267.121 322.58L266.884 322.675L175.808 349.884L170.743 341.697C170.743 341.697 167.146 335.215 170.033 327.265L266.695 296.365L275.073 293.715C275.641 296.176 275.925 298.494 275.973 300.671C275.973 300.908 275.973 301.192 275.973 301.428Z" fill="#FFBE69"/>
<path d="M522.261 410.146C522.261 410.146 499.35 366.801 476.249 349.955C453.149 333.109 453.812 301.073 453.812 301.073C453.812 301.073 417.031 366.801 484.012 457.608L521.787 443.08L522.261 410.146Z" fill="#898DCA"/>
<path d="M431.942 429.405C431.942 429.405 409.363 385.918 408.7 357.289C408.037 328.708 381.292 311.058 381.292 311.058C381.292 311.058 456.273 318.25 492.77 425.004L459.303 447.765L431.942 429.405Z" fill="#C3C6F4"/>
<path d="M412.676 331.784C412.676 331.784 458.592 395.666 479.894 440.62" stroke="#72BBFE" stroke-width="2" stroke-miterlimit="10" stroke-linecap="round"/>
<path d="M334.334 284.18C334.334 284.18 399.517 337.841 428.818 420.982" stroke="#5A86C9" stroke-width="2" stroke-miterlimit="10" stroke-linecap="round"/>
<path d="M424.42 360.698C426.948 349.989 425.181 340.408 420.474 339.297C415.766 338.187 409.901 345.967 407.373 356.676C404.844 367.385 406.611 376.966 411.318 378.077C416.026 379.187 421.891 371.407 424.42 360.698Z" fill="#898DCA"/>
<path d="M404.038 320.347C407.431 305.975 405.746 293.279 400.275 291.988C394.805 290.697 387.619 301.302 384.226 315.673C380.833 330.045 382.518 342.741 387.989 344.032C393.459 345.323 400.645 334.718 404.038 320.347Z" fill="#898DCA"/>
<path d="M373.237 292.229C375.982 280.605 374.411 270.286 369.729 269.182C365.047 268.077 359.027 276.605 356.283 288.23C353.538 299.854 355.109 310.173 359.791 311.277C364.473 312.382 370.493 303.854 373.237 292.229Z" fill="#898DCA"/>
<path d="M395.585 396.61C406.538 395.535 415.035 390.763 414.562 385.951C414.089 381.14 404.827 378.111 393.873 379.186C382.92 380.261 374.423 385.033 374.896 389.845C375.369 394.656 384.631 397.685 395.585 396.61Z" fill="#898DCA"/>
<path d="M368.081 364.994C382.781 363.551 394.252 357.849 393.703 352.257C393.154 346.665 380.792 343.302 366.091 344.745C351.391 346.188 339.92 351.89 340.469 357.482C341.019 363.074 353.381 366.437 368.081 364.994Z" fill="#898DCA"/>
<path d="M346.967 330.932C358.857 329.765 368.115 324.94 367.645 320.154C367.175 315.368 357.155 312.435 345.264 313.602C333.374 314.769 324.116 319.595 324.587 324.381C325.057 329.166 335.077 332.1 346.967 330.932Z" fill="#898DCA"/>
<path d="M344.249 293.941C347.404 290.311 342.651 281.018 333.631 273.184C324.612 265.35 314.743 261.943 311.588 265.573C308.433 269.203 313.186 278.496 322.206 286.33C331.225 294.163 341.094 297.571 344.249 293.941Z" fill="#898DCA"/>
<path d="M491.018 436.645C491.018 436.645 451.303 407.874 423.137 403C394.925 398.126 381.434 369.072 381.434 369.072C381.434 369.072 377.505 444.263 477.764 496.126L505.219 466.409L491.018 436.645Z" fill="#8288E2"/>
<path d="M391.374 391.88C391.374 391.88 406.522 421.218 490.308 477.056" stroke="#72BBFE" stroke-width="2" stroke-miterlimit="10" stroke-linecap="round"/>
<path d="M475.729 437.544C475.729 437.544 475.918 388.52 488.651 362.92C501.338 337.273 485.859 309.259 485.859 309.259C485.859 309.259 548.911 350.428 531.633 461.961L491.444 466.598L475.729 437.544Z" fill="#A4A8E8"/>
<path d="M261.956 380.949C261.435 380.76 288.086 362.116 304.796 379.104C320.511 396.47 325.482 382.416 367.895 391.454C408.558 402.906 384.511 400.161 396.439 418.143C407.043 437.023 406.901 417.244 432.841 428.175C457.693 440.146 448.368 438.206 449.125 458.601C449.125 479.28 440.557 462.34 459.35 473.649C469.101 479.848 461.954 496.646 453.054 507.199C443.729 517.704 432.699 521.915 425.173 501.757C416.558 481.267 408.7 471.046 401.931 465.794C394.972 460.589 389.15 460.399 380.44 460.92C362.878 462.529 365.103 458.175 339.493 436.124C326.144 425.477 319.423 425.903 313.316 426.85C307.068 427.891 301.435 429.452 286.476 423.821C255.376 413.884 276.536 406.407 247.802 397.18C233.08 392.921 221.767 389.703 222.004 386.107C222.193 382.889 233.79 379.246 261.956 380.949Z" fill="#DEE0FF"/>
<path d="M385.552 526.837C385.552 526.837 347.067 496.457 334.712 470.668C322.357 444.878 290.736 439.768 290.736 439.768C290.736 439.768 362.073 415.54 439.232 497.877L418.072 532.373L385.552 526.837Z" fill="white"/>
<path d="M262.145 390.461C262.145 390.461 416.462 405.13 464.272 509.707" stroke="#72BBFE" stroke-width="2" stroke-miterlimit="10" stroke-linecap="round"/>
<path d="M331.541 447.292C331.541 447.292 421.055 495.511 441.836 536.727" stroke="#72BBFE" stroke-width="2" stroke-miterlimit="10" stroke-linecap="round"/>
</g>
<defs>
<clipPath id="clip0_173_126">
<rect width="511" height="550" fill="white"/>
</clipPath>
</defs>
</svg>
