<svg width="282" height="264" viewBox="0 0 282 264" fill="none" xmlns="http://www.w3.org/2000/svg">
<path d="M-18.6297 142.838C-18.6297 142.838 4.28127 102.024 27.3816 86.1617C50.4819 70.2995 49.8192 40.1345 49.8192 40.1345C49.8192 40.1345 86.5999 102.024 19.6184 187.528L-18.1563 173.849L-18.6297 142.838Z" fill="#898DCA"/>
<path d="M71.6886 160.972C71.6886 160.972 94.2682 120.025 94.9309 93.068C95.5936 66.1557 122.339 49.536 122.339 49.536C122.339 49.536 47.3575 56.3086 10.8609 156.829L44.3279 178.26L71.6886 160.972Z" fill="#C3C6F4"/>
<path d="M90.9551 69.0518C90.9551 69.0518 45.0385 129.203 23.7369 171.532" stroke="#72BBFE" stroke-width="2" stroke-miterlimit="10" stroke-linecap="round"/>
<path d="M169.297 24.2277C169.297 24.2277 104.114 74.7551 74.8128 153.041" stroke="#5A86C9" stroke-width="2" stroke-miterlimit="10" stroke-linecap="round"/>
<path d="M79.2113 96.2775C76.6832 86.1941 78.4498 77.1723 83.1572 76.1266C87.8646 75.0808 93.7301 82.4073 96.2583 92.4907C98.7865 102.574 97.0198 111.596 92.3125 112.642C87.6051 113.687 81.7395 106.361 79.2113 96.2775Z" fill="#898DCA"/>
<path d="M99.5931 58.2829C96.2002 44.7506 97.8847 32.7953 103.355 31.58C108.826 30.3648 116.012 40.3497 119.404 53.882C122.797 67.4143 121.113 79.3696 115.642 80.5848C110.171 81.8001 102.986 71.8152 99.5931 58.2829Z" fill="#898DCA"/>
<path d="M130.394 31.8073C127.649 20.8617 129.22 11.1454 133.902 10.1054C138.584 9.06531 144.604 17.0953 147.348 28.0409C150.093 38.9865 148.522 48.7028 143.84 49.7429C139.158 50.7829 133.138 42.7529 130.394 31.8073Z" fill="#898DCA"/>
<path d="M108.046 130.093C97.0926 129.08 88.5962 124.587 89.0688 120.056C89.5415 115.526 98.8042 112.673 109.758 113.686C120.711 114.698 129.208 119.192 128.735 123.723C128.262 128.253 119 131.105 108.046 130.093Z" fill="#898DCA"/>
<path d="M135.55 100.323C120.85 98.9645 109.379 93.5946 109.928 88.3293C110.477 83.0639 122.839 79.897 137.539 81.2558C152.239 82.6145 163.711 87.9844 163.162 93.2497C162.612 98.5151 150.25 101.682 135.55 100.323Z" fill="#898DCA"/>
<path d="M156.664 68.2503C144.774 67.1513 135.516 62.6074 135.986 58.1013C136.456 53.5951 146.476 50.8331 158.366 51.9321C170.257 53.0311 179.514 57.575 179.044 62.0812C178.574 66.5873 168.554 69.3493 156.664 68.2503Z" fill="#898DCA"/>
<path d="M159.382 33.4187C156.227 30.0006 160.98 21.2501 169.999 13.874C179.019 6.49782 188.888 3.28917 192.043 6.70726C195.198 10.1254 190.444 18.8758 181.425 26.252C172.406 33.6281 162.537 36.8368 159.382 33.4187Z" fill="#898DCA"/>
<path d="M12.6125 167.79C12.6125 167.79 52.328 140.699 80.4934 136.11C108.706 131.52 122.197 104.163 122.197 104.163C122.197 104.163 126.126 174.963 25.8668 223.797L-1.58854 195.816L12.6125 167.79Z" fill="#8288E2"/>
<path d="M112.257 125.639C112.257 125.639 97.1091 153.264 13.3231 205.841" stroke="#72BBFE" stroke-width="2" stroke-miterlimit="10" stroke-linecap="round"/>
<path d="M27.9023 168.636C27.9023 168.636 27.713 122.475 14.9794 98.3702C2.29315 74.2204 17.7723 47.8428 17.7723 47.8428C17.7723 47.8428 -45.2802 86.6072 -28.0023 191.627L12.1865 195.994L27.9023 168.636Z" fill="#A4A8E8"/>
<path d="M241.675 115.346C242.196 115.168 215.545 97.6127 198.835 113.609C183.119 129.961 178.149 116.728 135.735 125.238C95.0732 136.021 119.12 133.436 107.191 150.368C96.588 168.146 96.73 149.521 70.7894 159.814C45.9377 171.087 55.263 169.26 54.5056 188.464C54.5056 207.935 63.0735 191.984 44.2809 202.633C34.5295 208.47 41.6774 224.288 50.5766 234.224C59.902 244.115 70.9315 248.081 78.458 229.1C87.0733 209.807 94.9312 200.182 101.7 195.237C108.659 190.335 114.481 190.157 123.191 190.647C140.753 192.162 138.528 188.063 164.137 167.299C177.486 157.274 184.208 157.675 190.315 158.566C196.563 159.547 202.196 161.017 217.155 155.715C248.255 146.358 227.095 139.318 255.829 130.629C270.55 126.619 281.864 123.589 281.627 120.203C281.438 117.173 269.84 113.742 241.675 115.346Z" fill="#DEE0FF"/>
<path d="M118.079 252.715C118.079 252.715 156.564 224.109 168.919 199.826C181.274 175.542 212.895 170.73 212.895 170.73C212.895 170.73 141.558 147.917 64.3992 225.446L85.5587 257.928L118.079 252.715Z" fill="#BDC1FF"/>
<path d="M241.486 124.302C241.486 124.302 87.1686 138.115 39.3585 236.585" stroke="#72BBFE" stroke-width="2" stroke-miterlimit="10" stroke-linecap="round"/>
<path d="M172.09 177.815C172.09 177.815 82.5761 223.218 61.7953 262.027" stroke="#72BBFE" stroke-width="2" stroke-miterlimit="10" stroke-linecap="round"/>
</svg>
