<svg width="369" height="475" viewBox="0 0 369 475" fill="none" xmlns="http://www.w3.org/2000/svg">
<path d="M353.037 474.146L345.084 67.0997L264.943 27.4456L267.831 474.146H353.037Z" fill="#A4A8E8"/>
<path d="M175.809 328.732H175.714C175.667 327.596 175.572 326.508 175.43 325.419C172.732 304.646 155.501 292.248 134.673 297.217C112.709 302.469 94.8154 325.041 93.5847 348.37H93.49V474.146H13.0176L13.917 398.34L14.1537 376.714L16.2838 193.349L16.5678 170.399L17.3252 104.009L264.944 27.4456L265.37 90.949L265.559 117.685L266.695 296.412L266.884 322.675L267.879 474.146H175.809V328.732Z" fill="#D0D3FF"/>
<path d="M362.41 44.7647C362.41 44.7647 361.7 59.1973 345.084 67.147L264.943 27.4456C264.943 27.4456 272.186 18.786 267.831 0L362.41 44.7647Z" fill="#8C7DE4"/>
<path d="M267.831 0L0 85.8857C0 85.8857 4.35498 100.318 17.3252 103.915L264.944 27.4456C264.944 27.4456 272.186 18.0289 267.831 0Z" fill="#B8ADFF"/>
<path d="M364.634 134.152C364.634 134.152 363.924 148.585 347.309 156.534L265.653 117.637C265.653 117.637 274.363 108.173 270.056 89.4347L364.634 134.152Z" fill="#8C7DE4"/>
<path d="M270.056 89.4347L0.709961 175.368C0.709961 175.368 2.88745 189.8 15.8577 193.397L265.654 117.637C265.654 117.637 274.411 107.464 270.056 89.4347Z" fill="#B8ADFF"/>
<path d="M368.138 338.622C368.138 338.622 367.428 353.054 350.812 361.004L267.121 322.58C267.121 322.58 279.381 312.454 275.074 293.715L368.138 338.622Z" fill="#E8A656"/>
<path d="M91.3129 354.71L93.4904 374.49L13.87 398.339L13.6807 398.387C3.59796 393.324 4.21334 379.837 4.21334 379.837L14.1541 376.667L93.4904 351.445L91.3129 354.71Z" fill="#FFBE69"/>
<path d="M167.051 306.302C161.087 304.173 154.223 303.747 146.886 305.498C124.921 310.75 107.028 333.322 105.797 356.651H105.703V474.146H93.4424V348.37H93.5371C94.7205 325.041 112.661 302.469 134.625 297.217C147.832 294.046 159.524 297.832 167.051 306.302Z" fill="#8C7DE4"/>
<path d="M175.808 328.732V474.146H105.75V356.651H105.845C107.028 333.322 124.969 310.75 146.933 305.498C154.27 303.747 161.134 304.125 167.098 306.302C167.43 306.681 167.761 307.107 168.092 307.485C171.927 312.264 174.53 318.369 175.43 325.419C175.572 326.508 175.714 327.596 175.808 328.732Z" fill="#BDC1FF"/>
<path d="M175.809 328.732V474.146H108.638V358.449H108.732C109.916 335.12 127.856 312.548 149.821 307.296C156.4 305.734 162.602 305.876 168.093 307.485C171.927 312.264 174.53 318.369 175.43 325.419C175.572 326.508 175.714 327.596 175.809 328.732Z" fill="#B6AAFD"/>
<path d="M93.49 351.445V374.49L91.3125 354.71L93.49 351.445Z" fill="#FFBE69"/>
<path d="M105.75 353.244C105.75 353.244 105.75 369.758 93.4902 374.49V351.445L105.75 353.244Z" fill="#E8A656"/>
<path d="M275.973 301.428C275.925 313.968 268.162 321.586 267.215 322.486C267.168 322.533 267.121 322.58 267.121 322.58L266.884 322.675L175.808 349.884L170.743 341.697C170.743 341.697 167.146 335.215 170.033 327.265L266.695 296.365L275.073 293.715C275.641 296.176 275.925 298.494 275.973 300.671C275.973 300.908 275.973 301.192 275.973 301.428Z" fill="#FFBE69"/>
</svg>
